<?xml version="1.0" standalone="no"?>
<!DOCTYPE svg PUBLIC "-//W3C//DTD SVG 1.0//EN" "http://www.w3.org/TR/2001/REC-SVG-20010904/DTD/svg10.dtd">
<svg xmlns="http://www.w3.org/2000/svg" xmlns:xlink="http://www.w3.org/1999/xlink" id="body_1" width="64" height="48">

<g transform="matrix(0.0625 0 0 0.0625 0 0)">
	<g transform="matrix(0.5760015 0 0 0.5760015 339.52216 -0)">
	</g>
    <path transform="matrix(0.5760015 0 0 0.5760015 339.52216 -0)"  d="M295.27 3.65L330.84998 70.48C 338.84998 82.810005 347.52 93.73 357.71997 103.9C 387.50998 133.69 415.8 164.89 441.21997 198.31C 501.49997 277.47 542.17 365.38 571.19995 460.45C 588.61993 518.53 598.06995 578.11 598.77997 638.35C 601.68994 818.45996 539.94995 973.11 415.46997 1101.63C 395.13998 1121.96 373.38995 1140.79 350.05997 1157.54C 337.72998 1157.54 331.88995 1148.0801 326.80997 1139.38C 317.35995 1123.42 311.55997 1105.21 308.64996 1087.09C 304.26996 1065.2899 301.39996 1043.51 302.81998 1021.00995L302.81998 1021.00995L302.81998 1010.85C 301.81998 1008.68 290.94998 8.779968 295.27997 3.6599731L295.27997 3.6599731L295.27997 3.6699731L295.27 3.65z" stroke="none" fill="#599636" fill-rule="nonzero" />
	<g transform="matrix(0.5760015 0 0 0.5760015 339.52216 -0)">
	</g>
    <path transform="matrix(0.5760015 0 0 0.5760015 339.52216 -0)"  d="M295.27 1.43C 293.81 -1.4800001 292.36 0.71999997 290.88998 2.1399999C 291.59998 16.72 286.50998 29.72 278.56 42.14C 269.81 54.47 258.23 63.94 246.6 74.1C 182.03 130.01 131.20001 197.54999 90.490005 273.08C 36.33 374.74 8.41 483.68 0.5 598.38C -3.12 639.75 13.59 785.74 26.63 827.86C 62.21 939.68 126.119995 1033.38 208.90001 1114.7C 229.23001 1134.2799 250.98001 1152.44 273.48 1169.8999C 280.02002 1169.8999 280.73 1164.07 282.22 1159.7299C 285.07 1150.4498 287.28 1140.9698 288.76 1131.3899L288.76 1131.3899L303.34 1022.48987L295.26 1.43L295.27 1.43z" stroke="none" fill="#6CAC48" fill-rule="nonzero" />
	<g transform="matrix(0.5760015 0 0 0.5760015 339.52216 -0)">
	</g>
    <path transform="matrix(0.5760015 0 0 0.5760015 339.52216 -0)"  d="M330.85 1201.77C 332.31 1185.1 340.31 1171.27 349.02002 1157.48C 340.27002 1153.86 333.77002 1146.65 328.69003 1138.61C 324.31003 1131.36 320.69003 1122.65 317.86005 1114.65C 307.69003 1084.15 305.53006 1052.15 302.61005 1020.99L302.61005 1020.99L302.61005 1002.12C 298.99005 1005.02997 298.23004 1029.7 298.23004 1033.37C 296.20004 1066.22 291.69003 1099.17 285.15005 1131.42C 282.98004 1144.5 281.53006 1157.54 273.48004 1169.16C 273.48004 1170.62 273.48004 1172.0701 274.19003 1174.25C 287.27002 1212.75 290.86005 1251.95 293.06003 1291.91L293.06003 1291.91L293.06003 1306.49C 293.06003 1323.9 292.35004 1320.23 306.81003 1326.07C 312.64 1328.24 319.14 1328.98 324.97003 1333.32C 329.35004 1333.32 330.06003 1329.7 330.06003 1326.7799L330.06003 1326.7799L327.89 1302.82L327.89 1235.99C 327.18002 1224.32 329.35 1212.74 330.80002 1201.83L330.80002 1201.83L330.85 1201.7699L330.85 1201.77z" stroke="none" fill="#C2BFBF" fill-rule="nonzero" />
</g>
</svg>