<?xml version="1.0" encoding="UTF-8"?>
<svg xmlns="http://www.w3.org/2000/svg" xmlns:xlink="http://www.w3.org/1999/xlink" width="7pt" height="15pt" viewBox="0 0 7 15" version="1.1">
<g id="surface1">
<path style=" stroke:none;fill-rule:nonzero;fill:rgb(34.901961%,58.823529%,21.176471%);fill-opacity:1;" d="M 3.453125 0.0429688 L 3.867188 0.792969 C 3.960938 0.929688 4.0625 1.054688 4.179688 1.167969 C 4.527344 1.503906 4.859375 1.855469 5.15625 2.230469 C 5.859375 3.121094 6.335938 4.109375 6.675781 5.179688 C 6.878906 5.832031 6.988281 6.503906 6.996094 7.179688 C 7.03125 9.207031 6.308594 10.949219 4.855469 12.394531 C 4.617188 12.621094 4.363281 12.832031 4.089844 13.023438 C 3.949219 13.023438 3.878906 12.914062 3.820312 12.816406 C 3.710938 12.636719 3.640625 12.433594 3.609375 12.230469 C 3.554688 11.984375 3.523438 11.738281 3.539062 11.488281 L 3.539062 11.371094 C 3.527344 11.347656 3.402344 0.0976562 3.453125 0.0429688 Z M 3.453125 0.0429688 "/>
<path style=" stroke:none;fill-rule:nonzero;fill:rgb(42.352941%,67.45098%,28.235294%);fill-opacity:1;" d="M 3.453125 0.015625 C 3.433594 -0.015625 3.417969 0.0078125 3.398438 0.0234375 C 3.410156 0.1875 3.347656 0.335938 3.257812 0.472656 C 3.152344 0.613281 3.019531 0.71875 2.882812 0.832031 C 2.128906 1.460938 1.535156 2.222656 1.058594 3.070312 C 0.425781 4.214844 0.101562 5.441406 0.0078125 6.730469 C -0.0351562 7.195312 0.160156 8.839844 0.3125 9.3125 C 0.726562 10.570312 1.476562 11.625 2.441406 12.539062 C 2.679688 12.761719 2.933594 12.964844 3.195312 13.160156 C 3.273438 13.160156 3.28125 13.097656 3.296875 13.046875 C 3.332031 12.941406 3.359375 12.835938 3.375 12.726562 L 3.546875 11.503906 L 3.449219 0.015625 Z M 3.453125 0.015625 "/>
<path style=" stroke:none;fill-rule:nonzero;fill:rgb(76.078431%,74.901961%,74.901961%);fill-opacity:1;" d="M 3.867188 13.519531 C 3.882812 13.332031 3.976562 13.175781 4.078125 13.023438 C 3.976562 12.980469 3.902344 12.898438 3.839844 12.808594 C 3.789062 12.726562 3.75 12.628906 3.714844 12.539062 C 3.597656 12.195312 3.570312 11.835938 3.535156 11.484375 L 3.535156 11.273438 C 3.496094 11.304688 3.484375 11.585938 3.484375 11.625 C 3.460938 11.996094 3.410156 12.367188 3.332031 12.726562 C 3.308594 12.875 3.289062 13.023438 3.195312 13.152344 C 3.195312 13.167969 3.195312 13.1875 3.203125 13.210938 C 3.359375 13.644531 3.398438 14.085938 3.425781 14.535156 L 3.425781 14.699219 C 3.425781 14.894531 3.417969 14.851562 3.585938 14.917969 C 3.652344 14.941406 3.730469 14.949219 3.796875 15 C 3.847656 15 3.859375 14.960938 3.859375 14.925781 L 3.832031 14.65625 L 3.832031 13.90625 C 3.824219 13.773438 3.847656 13.644531 3.867188 13.519531 Z M 3.867188 13.519531 "/>
</g>
</svg>
