<svg xmlns="http://www.w3.org/2000/svg" viewBox="0 0 512 512">
  <defs>
    <linearGradient id="bg" x1="0%" y1="0%" x2="100%" y2="100%">
      <stop offset="0%" style="stop-color:#1b4f72"/>
      <stop offset="100%" style="stop-color:#2e86c1"/>
    </linearGradient>
  </defs>
  <rect width="512" height="512" rx="96" fill="url(#bg)"/>
  <path d="M384 352H144c-26.5 0-48-21.5-48-48s21.5-48 48-48h4.5c-.3-2.6-.5-5.3-.5-8 0-44.2 35.8-80 80-80 13.2 0 25.6 3.2 36.5 8.8C271.6 127.5 299.3 112 330 112c39.7 0 72 32.3 72 72 0 3.5-.3 7-.8 10.4C418.4 200.9 431 208 445 208c26.5 0 48 21.5 48 48s-21.5 48-48 48H384v48z" fill="#fff" opacity=".95"/>
</svg>