<svg id="svg" version="1.1" xmlns="http://www.w3.org/2000/svg" xmlns:xlink="http://www.w3.org/1999/xlink" width="400" height="166.66666666666669" viewBox="0, 0, 400,166.66666666666669"><g id="svgg"><path id="path0" d="M231.219 64.407 C 231.236 64.504,231.171 64.570,231.075 64.553 C 230.979 64.536,230.900 64.777,230.900 65.089 C 230.900 65.864,231.245 65.808,226.202 65.848 L 221.661 65.884 221.249 66.296 C 220.951 66.594,220.865 66.818,220.937 67.104 C 221.045 67.536,221.166 67.509,218.917 67.563 C 217.893 67.588,217.519 67.901,217.627 68.641 C 217.707 69.185,217.367 69.304,216.112 69.173 C 215.908 69.152,215.819 69.241,215.840 69.446 C 215.971 70.696,215.887 70.833,215.000 70.833 L 214.167 70.833 214.167 71.667 L 214.167 72.500 213.333 72.500 L 212.500 72.500 212.500 73.333 L 212.500 74.167 211.667 74.167 L 210.833 74.167 210.833 75.833 L 210.833 77.500 210.000 77.500 L 209.167 77.500 209.167 79.167 L 209.167 80.833 208.625 80.853 C 208.327 80.863,207.959 80.860,207.807 80.845 C 207.561 80.820,207.527 81.092,207.509 83.275 C 207.498 84.627,207.469 85.754,207.444 85.778 C 207.419 85.803,207.141 85.844,206.825 85.870 C 205.817 85.952,205.857 85.653,205.852 93.232 C 205.847 100.930,205.834 100.833,206.839 100.833 L 207.500 100.833 207.519 103.875 C 207.530 105.548,207.525 107.048,207.509 107.208 C 207.484 107.451,207.618 107.500,208.304 107.500 L 209.130 107.500 209.196 109.292 C 209.271 111.305,209.533 112.091,210.122 112.071 C 210.321 112.064,210.445 112.120,210.399 112.196 C 210.352 112.272,210.431 112.333,210.573 112.333 C 210.777 112.333,210.833 112.531,210.833 113.250 L 210.833 114.167 211.667 114.167 L 212.500 114.167 212.500 115.000 L 212.500 115.833 213.333 115.833 L 214.167 115.833 214.167 116.667 L 214.167 117.500 215.000 117.500 L 215.833 117.500 215.833 118.333 L 215.833 119.167 216.667 119.167 C 217.506 119.167,217.647 119.316,217.514 120.059 C 217.400 120.698,217.672 120.821,219.301 120.869 L 220.917 120.917 220.922 121.551 C 220.929 122.465,220.998 122.479,225.406 122.494 C 229.071 122.507,230.010 122.601,229.515 122.908 C 229.255 123.068,229.290 123.339,229.557 123.237 C 229.829 123.133,230.237 123.585,230.088 123.826 C 229.938 124.068,230.219 124.044,230.491 123.792 C 230.671 123.624,230.691 123.626,230.593 123.799 C 230.496 123.970,230.653 123.991,231.344 123.900 C 231.983 123.815,232.185 123.835,232.099 123.975 C 232.021 124.101,232.131 124.167,232.417 124.167 C 232.657 124.167,232.811 124.099,232.760 124.016 C 232.706 123.928,233.097 123.904,233.692 123.958 C 234.393 124.021,234.683 123.995,234.609 123.874 C 234.542 123.766,234.617 123.729,234.803 123.777 C 235.175 123.874,235.574 123.433,235.437 123.077 C 235.380 122.927,235.407 122.859,235.502 122.918 C 235.593 122.974,235.667 122.903,235.667 122.760 C 235.667 122.533,239.558 122.343,241.818 122.460 C 242.182 122.478,242.413 122.136,242.453 121.519 C 242.500 120.800,242.382 120.857,243.914 120.808 C 245.295 120.764,245.972 120.434,245.768 119.904 C 245.571 119.391,245.850 119.167,246.684 119.167 L 247.500 119.167 247.500 118.333 L 247.500 117.500 248.333 117.500 L 249.167 117.500 249.167 116.667 L 249.167 115.833 250.000 115.833 L 250.833 115.833 250.833 115.000 C 250.833 114.190,250.847 114.166,251.333 114.146 C 252.498 114.097,252.448 114.184,252.479 112.167 L 252.500 110.833 253.333 110.833 L 254.167 110.833 254.167 109.167 L 254.167 107.500 255.000 107.500 L 255.833 107.500 255.833 104.849 C 255.833 102.216,255.836 102.199,256.193 102.292 C 256.470 102.364,256.520 102.332,256.411 102.151 C 256.294 101.957,256.321 101.958,256.566 102.158 C 256.825 102.368,256.858 102.368,256.822 102.158 C 256.759 101.789,257.013 101.322,257.210 101.444 C 257.322 101.513,257.352 101.421,257.292 101.193 C 257.240 100.995,257.266 100.833,257.349 100.833 C 257.540 100.833,257.552 87.719,257.361 87.601 C 257.285 87.553,257.257 87.281,257.298 86.995 C 257.363 86.559,257.325 86.484,257.062 86.530 C 256.843 86.567,256.765 86.497,256.799 86.292 C 256.826 86.131,256.770 86.000,256.674 86.000 C 256.578 86.000,256.500 86.078,256.500 86.173 C 256.500 86.290,256.393 86.288,256.167 86.167 C 255.855 86.000,255.833 85.818,255.833 83.400 C 255.833 81.035,255.808 80.815,255.542 80.842 C 255.381 80.858,255.006 80.863,254.708 80.853 L 254.167 80.833 254.167 79.167 L 254.167 77.500 253.333 77.500 L 252.500 77.500 252.500 75.833 L 252.500 74.167 251.667 74.167 L 250.833 74.167 250.833 73.333 L 250.833 72.500 250.000 72.500 L 249.167 72.500 249.167 71.667 L 249.167 70.833 248.333 70.833 L 247.500 70.833 247.500 70.000 L 247.500 69.167 246.667 69.167 L 245.833 69.167 245.833 68.323 C 245.833 67.619,245.785 67.484,245.542 67.509 C 245.381 67.525,244.631 67.530,243.875 67.519 L 242.500 67.500 242.500 66.768 C 242.500 65.817,242.696 65.859,238.150 65.839 C 233.815 65.821,234.105 65.875,234.134 65.086 C 234.149 64.708,234.085 64.517,233.953 64.543 C 233.841 64.565,233.764 64.504,233.781 64.407 C 233.801 64.295,233.332 64.230,232.500 64.230 C 231.668 64.230,231.199 64.295,231.219 64.407 M237.500 74.736 C 237.500 75.806,237.544 75.833,239.268 75.833 L 240.833 75.833 240.833 76.667 L 240.833 77.500 241.667 77.500 L 242.500 77.500 242.510 78.208 C 242.516 78.598,242.535 79.329,242.552 79.833 L 242.583 80.750 243.375 80.801 C 244.163 80.851,244.167 80.854,244.188 81.467 C 244.244 83.070,244.280 83.438,244.407 83.718 C 244.483 83.887,244.647 83.979,244.780 83.928 C 244.912 83.878,244.972 83.911,244.915 84.002 C 244.857 84.097,245.030 84.167,245.323 84.167 L 245.833 84.167 245.844 85.708 C 245.850 86.556,245.868 87.662,245.885 88.167 L 245.917 89.083 246.708 89.134 L 247.500 89.185 247.500 93.445 L 247.500 97.704 246.975 97.627 C 245.998 97.484,245.920 97.726,245.858 101.085 C 245.794 104.557,245.908 104.174,244.932 104.194 C 244.319 104.206,244.158 104.267,244.179 104.480 C 244.193 104.628,244.196 105.369,244.186 106.125 L 244.167 107.500 243.333 107.500 L 242.500 107.500 242.500 108.333 C 242.500 109.221,242.362 109.304,241.112 109.173 C 240.908 109.152,240.819 109.241,240.840 109.446 C 240.962 110.615,240.861 110.833,240.200 110.833 C 239.402 110.833,239.167 111.068,239.167 111.867 L 239.167 112.500 238.333 112.500 L 237.500 112.500 237.500 113.333 L 237.500 114.167 231.667 114.167 L 225.833 114.167 225.833 113.333 L 225.833 112.500 225.000 112.500 L 224.167 112.500 224.167 111.656 C 224.167 110.952,224.118 110.817,223.875 110.842 C 222.631 110.969,222.500 110.887,222.500 109.990 C 222.500 109.286,222.452 109.151,222.208 109.175 C 220.968 109.302,220.833 109.219,220.833 108.333 L 220.833 107.500 220.000 107.500 L 219.167 107.500 219.167 105.917 C 219.167 105.046,219.148 104.329,219.125 104.323 C 219.102 104.317,218.747 104.274,218.335 104.227 C 217.923 104.180,217.569 104.125,217.549 104.104 C 217.528 104.083,217.502 102.852,217.492 101.367 C 217.481 99.882,217.419 98.667,217.355 98.667 C 217.290 98.667,217.240 98.460,217.243 98.208 C 217.248 97.865,217.166 97.745,216.917 97.732 C 215.795 97.669,215.833 97.795,215.833 94.147 L 215.833 90.833 216.250 90.833 C 216.479 90.833,216.667 90.767,216.667 90.685 C 216.667 90.604,216.798 90.547,216.958 90.560 C 217.141 90.575,217.241 90.475,217.227 90.292 C 217.214 90.131,217.265 90.000,217.340 90.000 C 217.414 90.000,217.483 88.711,217.492 87.135 C 217.501 85.559,217.527 84.250,217.551 84.227 C 217.575 84.203,217.929 84.160,218.339 84.131 C 218.850 84.095,219.090 84.001,219.106 83.831 C 219.118 83.695,219.137 82.965,219.147 82.208 L 219.167 80.833 219.800 80.833 C 220.724 80.833,220.833 80.636,220.833 78.967 L 220.833 77.500 221.667 77.500 L 222.500 77.500 222.500 76.667 L 222.500 75.833 224.167 75.833 L 225.833 75.833 225.833 75.000 L 225.833 74.167 231.667 74.167 L 237.500 74.167 237.500 74.736 M151.626 109.682 C 151.739 109.828,151.775 110.009,151.707 110.084 C 151.639 110.159,151.671 110.170,151.777 110.109 C 151.884 110.048,152.010 110.092,152.056 110.207 C 152.104 110.327,152.146 110.339,152.154 110.234 C 152.161 110.134,151.999 109.909,151.795 109.734 C 151.567 109.540,151.501 109.519,151.626 109.682 M44.167 112.083 C 44.167 112.424,44.248 112.500,44.612 112.500 L 45.058 112.500 44.667 112.083 C 44.451 111.854,44.251 111.667,44.221 111.667 C 44.191 111.667,44.167 111.854,44.167 112.083 M74.960 113.015 C 75.072 113.161,75.108 113.342,75.040 113.417 C 74.972 113.492,75.004 113.503,75.111 113.442 C 75.218 113.381,75.343 113.425,75.389 113.541 C 75.438 113.660,75.479 113.672,75.487 113.567 C 75.494 113.467,75.333 113.242,75.128 113.067 C 74.900 112.873,74.835 112.853,74.960 113.015 " stroke="none" fill="#f49c04" fill-rule="evenodd"></path><path id="path1" d="M68.667 67.083 L 68.275 67.500 68.721 67.500 C 69.085 67.500,69.167 67.424,69.167 67.083 C 69.167 66.854,69.142 66.667,69.112 66.667 C 69.083 66.667,68.882 66.854,68.667 67.083 M180.127 74.679 C 179.968 74.772,179.757 75.013,179.660 75.215 C 179.494 75.558,179.498 75.562,179.727 75.278 C 179.863 75.110,180.110 74.869,180.278 74.742 C 180.634 74.472,180.545 74.435,180.127 74.679 M335.786 79.786 C 335.739 80.133,335.692 84.841,335.681 90.248 C 335.663 99.340,335.640 100.101,335.372 100.368 C 335.113 100.628,334.595 100.660,330.250 100.681 C 327.592 100.694,325.133 100.742,324.786 100.788 L 324.156 100.871 324.173 112.686 C 324.186 121.635,324.238 124.501,324.387 124.503 C 324.511 124.504,324.522 124.550,324.417 124.628 C 324.191 124.794,324.156 125.359,324.380 125.221 C 324.491 125.152,324.516 125.218,324.447 125.398 C 324.387 125.555,324.405 125.642,324.488 125.591 C 324.570 125.540,324.676 125.592,324.723 125.707 C 324.769 125.822,324.815 125.767,324.825 125.583 C 324.842 125.270,324.854 125.268,325.019 125.551 C 325.157 125.789,325.243 125.811,325.430 125.656 C 325.603 125.512,325.667 125.510,325.667 125.649 C 325.667 125.933,363.609 125.904,363.725 125.620 C 363.789 125.461,363.810 125.461,363.820 125.619 C 363.828 125.736,363.997 125.665,364.219 125.452 C 364.431 125.249,364.577 125.028,364.544 124.960 C 364.510 124.893,364.612 124.887,364.770 124.948 C 365.000 125.036,365.034 124.995,364.937 124.742 C 364.870 124.569,364.870 124.481,364.937 124.548 C 365.004 124.615,365.194 124.463,365.359 124.211 C 365.645 123.775,365.660 122.688,365.663 102.194 C 365.665 90.337,365.708 80.568,365.760 80.484 C 365.811 80.401,365.741 80.333,365.604 80.333 C 365.269 80.333,365.078 79.684,365.341 79.442 C 365.499 79.296,365.521 79.300,365.431 79.458 C 365.357 79.589,365.418 79.667,365.594 79.667 C 365.818 79.667,365.834 79.619,365.677 79.429 C 365.474 79.184,363.960 79.132,364.109 79.375 C 364.152 79.444,364.111 79.500,364.020 79.500 C 363.928 79.500,363.810 79.430,363.757 79.344 C 363.698 79.250,358.180 79.182,349.766 79.172 L 335.871 79.156 335.786 79.786 M185.833 97.083 C 185.833 97.424,185.915 97.500,186.279 97.500 L 186.725 97.500 186.333 97.083 C 186.118 96.854,185.917 96.667,185.888 96.667 C 185.858 96.667,185.833 96.854,185.833 97.083 M271.033 104.367 C 270.765 104.635,270.772 105.057,271.042 104.895 C 271.208 104.794,271.208 104.821,271.042 105.026 C 270.752 105.385,270.764 124.463,271.055 124.823 C 271.207 125.010,271.204 125.036,271.042 124.939 C 270.909 124.859,270.833 124.912,270.833 125.083 C 270.833 125.232,270.913 125.304,271.011 125.243 C 271.109 125.183,271.230 125.289,271.280 125.480 L 271.370 125.827 282.727 125.788 L 294.083 125.750 294.083 115.000 L 294.083 104.250 283.013 104.212 C 274.463 104.183,271.884 104.221,271.689 104.379 C 271.488 104.541,271.462 104.540,271.561 104.375 C 271.723 104.105,271.302 104.098,271.033 104.367 M110.968 110.917 C 111.053 111.100,111.163 111.362,111.214 111.500 C 111.294 111.716,111.309 111.715,111.320 111.490 C 111.327 111.347,111.217 111.085,111.074 110.907 C 110.819 110.589,110.817 110.589,110.968 110.917 M365.332 124.542 C 365.310 124.610,365.281 124.723,365.268 124.792 C 365.255 124.860,365.185 125.010,365.113 125.125 C 365.040 125.240,365.031 125.333,365.094 125.333 C 365.156 125.333,365.114 125.446,365.000 125.583 C 364.662 125.991,364.950 125.868,365.409 125.409 C 365.832 124.986,365.971 124.728,365.679 124.909 C 365.595 124.961,365.491 124.872,365.449 124.710 C 365.406 124.549,365.354 124.473,365.332 124.542 " stroke="none" fill="#cfc9bb" fill-rule="evenodd"></path><path id="path2" d="M34.352 41.061 C 34.212 41.229,34.174 50.977,34.207 78.519 L 34.250 115.750 35.042 115.801 L 35.833 115.852 35.854 118.092 C 35.866 119.325,35.884 120.427,35.896 120.542 C 35.908 120.664,36.253 120.784,36.734 120.833 L 37.552 120.917 37.568 121.667 L 37.583 122.417 44.710 122.456 C 52.465 122.499,52.585 122.485,52.490 121.533 C 52.429 120.918,52.507 120.833,53.133 120.833 C 54.047 120.833,54.167 120.628,54.167 119.068 C 54.167 117.564,54.122 117.500,53.070 117.500 L 52.500 117.500 52.500 115.833 L 52.500 114.167 49.167 114.167 L 45.833 114.167 45.833 113.333 L 45.833 112.500 45.000 112.500 L 44.167 112.500 44.167 76.667 L 44.167 40.833 39.354 40.833 C 35.491 40.833,34.504 40.878,34.352 41.061 M159.367 41.033 C 159.155 41.245,159.057 121.686,159.268 122.236 C 159.357 122.468,159.954 122.500,164.268 122.500 L 169.167 122.500 169.167 109.167 L 169.167 95.833 170.000 95.833 L 170.833 95.833 170.833 95.000 L 170.833 94.167 171.667 94.167 L 172.500 94.167 172.500 93.333 L 172.500 92.500 173.333 92.500 L 174.167 92.500 174.195 93.625 C 174.240 95.382,174.242 95.404,174.391 95.635 C 174.468 95.755,174.693 95.840,174.891 95.825 C 175.792 95.754,175.833 95.790,175.833 96.667 L 175.833 97.500 176.667 97.500 L 177.500 97.500 177.519 98.875 C 177.530 99.631,177.525 100.381,177.509 100.542 C 177.484 100.785,177.619 100.833,178.323 100.833 L 179.167 100.833 179.188 102.167 C 179.199 102.900,179.227 103.575,179.250 103.667 C 179.273 103.758,179.301 103.908,179.313 104.000 C 179.324 104.092,179.671 104.167,180.083 104.167 L 180.833 104.167 180.853 105.042 C 180.864 105.523,180.859 106.018,180.842 106.142 C 180.825 106.266,180.866 106.491,180.933 106.642 C 181.000 106.793,181.062 106.992,181.072 107.083 C 181.081 107.175,181.253 107.244,181.453 107.238 C 181.653 107.231,181.779 107.287,181.732 107.363 C 181.685 107.438,181.839 107.500,182.073 107.500 C 182.474 107.500,182.500 107.550,182.500 108.333 L 182.500 109.167 183.333 109.167 L 184.167 109.167 184.167 110.833 L 184.167 112.500 185.000 112.500 L 185.833 112.500 185.859 113.875 C 185.873 114.631,185.891 115.362,185.900 115.500 C 185.912 115.677,186.148 115.765,186.708 115.801 L 187.500 115.852 187.500 116.676 L 187.500 117.500 188.333 117.500 L 189.167 117.500 189.167 119.167 L 189.167 120.833 190.000 120.833 L 190.833 120.833 190.833 121.671 L 190.833 122.508 196.000 122.495 C 198.842 122.488,201.167 122.422,201.167 122.348 C 201.167 122.274,201.340 122.246,201.552 122.287 C 202.133 122.398,202.389 121.953,202.389 120.833 C 202.389 119.867,202.147 119.293,201.769 119.364 C 201.137 119.482,200.833 119.145,200.833 118.322 L 200.833 117.500 200.006 117.500 L 199.179 117.500 199.131 115.880 L 199.083 114.261 198.500 114.232 C 198.179 114.216,197.823 114.195,197.708 114.185 C 197.572 114.173,197.500 113.879,197.500 113.333 L 197.500 112.500 196.667 112.500 L 195.833 112.500 195.833 110.934 C 195.833 109.211,195.806 109.167,194.736 109.167 L 194.167 109.167 194.167 108.333 L 194.167 107.500 193.333 107.500 L 192.500 107.500 192.500 105.833 L 192.500 104.167 191.667 104.167 L 190.833 104.167 190.833 103.604 C 190.833 102.812,190.650 101.990,190.495 102.086 C 190.423 102.131,190.400 102.031,190.444 101.864 C 190.541 101.492,190.100 101.093,189.743 101.229 C 189.593 101.287,189.526 101.260,189.585 101.165 C 189.641 101.074,189.569 101.000,189.427 101.000 C 189.223 101.000,189.167 100.802,189.167 100.083 L 189.167 99.167 188.333 99.167 L 187.500 99.167 187.500 98.333 L 187.500 97.500 186.667 97.500 L 185.833 97.500 185.833 95.854 L 185.833 94.209 185.061 94.193 C 184.095 94.174,184.175 94.313,184.151 92.619 C 184.132 91.201,183.928 90.652,183.515 90.907 C 182.978 91.239,182.500 90.803,182.500 89.982 L 182.500 89.167 181.667 89.167 L 180.833 89.167 180.833 87.500 L 180.833 85.833 181.667 85.833 L 182.500 85.833 182.500 85.000 L 182.500 84.167 183.333 84.167 L 184.167 84.167 184.167 83.333 L 184.167 82.500 185.000 82.500 L 185.833 82.500 185.833 81.667 L 185.833 80.833 186.667 80.833 L 187.500 80.833 187.500 80.000 L 187.500 79.167 188.333 79.167 L 189.167 79.167 189.167 78.333 L 189.167 77.500 190.000 77.500 L 190.833 77.500 190.833 76.667 L 190.833 75.833 191.458 75.831 C 192.396 75.829,193.338 75.643,193.238 75.481 C 193.189 75.402,193.260 75.380,193.395 75.432 C 193.674 75.538,194.000 75.042,194.000 74.511 C 194.000 74.167,194.239 74.090,195.098 74.157 C 195.510 74.188,195.870 73.807,195.826 73.385 C 195.745 72.599,195.813 72.520,196.625 72.467 C 197.105 72.437,197.425 72.335,197.438 72.208 C 197.449 72.094,197.468 71.737,197.479 71.417 C 197.499 70.856,197.525 70.833,198.133 70.833 C 198.932 70.833,199.167 70.598,199.167 69.800 L 199.167 69.167 200.000 69.167 L 200.833 69.167 200.833 67.500 L 200.833 65.833 195.000 65.833 L 189.167 65.833 189.167 66.667 L 189.167 67.500 188.333 67.500 L 187.500 67.500 187.500 68.333 L 187.500 69.167 186.667 69.167 L 185.833 69.167 185.833 70.000 L 185.833 70.833 185.000 70.833 C 184.370 70.833,184.167 70.894,184.167 71.083 C 184.167 71.221,184.067 71.333,183.946 71.333 C 183.684 71.333,183.000 72.025,183.000 72.289 C 183.000 72.391,182.719 72.564,182.375 72.675 C 181.569 72.934,181.210 73.255,181.083 73.834 C 181.003 74.199,180.861 74.322,180.424 74.404 C 179.809 74.520,179.602 74.710,179.417 75.333 C 179.233 75.948,178.976 76.231,178.823 75.984 C 178.746 75.859,178.585 75.835,178.392 75.920 C 178.222 75.994,178.008 76.061,177.917 76.069 C 177.825 76.077,177.744 76.158,177.736 76.250 C 177.728 76.342,177.661 76.555,177.586 76.725 C 177.497 76.928,177.529 77.082,177.679 77.175 C 177.968 77.353,177.685 77.475,176.833 77.539 C 176.208 77.587,175.837 77.811,175.937 78.082 C 176.161 78.691,175.729 79.217,174.992 79.234 L 174.250 79.250 174.235 80.000 C 174.219 80.748,174.217 80.750,173.570 80.804 C 172.709 80.876,172.500 81.081,172.500 81.854 C 172.500 82.510,172.338 82.619,171.529 82.510 C 171.136 82.456,170.867 82.833,170.867 83.434 C 170.867 84.146,170.900 84.112,170.103 84.217 C 169.747 84.264,169.387 84.403,169.304 84.526 C 169.182 84.707,169.158 84.702,169.179 84.500 C 169.194 84.362,169.197 74.481,169.186 62.542 L 169.167 40.833 164.367 40.833 C 160.856 40.833,159.513 40.887,159.367 41.033 M297.500 80.000 L 297.500 100.833 310.840 100.833 L 324.180 100.833 324.687 100.458 C 325.179 100.094,325.325 100.082,329.742 100.034 C 334.208 99.986,334.295 99.978,334.641 99.611 C 334.988 99.241,334.992 99.139,335.038 89.716 L 335.083 80.194 335.458 79.687 L 335.833 79.180 335.833 69.173 L 335.833 59.167 316.667 59.167 L 297.500 59.167 297.500 80.000 M77.691 64.448 C 77.577 64.570,77.527 64.741,77.580 64.828 C 77.633 64.914,77.629 65.176,77.570 65.409 L 77.464 65.833 73.315 65.833 L 69.167 65.833 69.167 66.667 L 69.167 67.500 67.500 67.500 L 65.833 67.500 65.833 68.333 L 65.833 69.167 65.042 69.186 C 64.606 69.196,64.114 69.191,63.948 69.174 C 63.783 69.156,63.547 69.225,63.424 69.327 C 63.302 69.429,63.100 69.490,62.976 69.464 C 62.844 69.437,62.769 69.533,62.796 69.696 C 62.821 69.849,62.765 70.022,62.671 70.081 C 62.577 70.139,62.500 70.412,62.500 70.688 C 62.500 71.115,62.450 71.173,62.162 71.082 C 61.977 71.023,61.844 71.037,61.868 71.112 C 61.935 71.328,61.292 71.994,61.119 71.887 C 61.031 71.833,61.011 71.938,61.072 72.132 C 61.132 72.319,61.102 72.520,61.007 72.579 C 60.911 72.638,60.833 73.019,60.833 73.427 L 60.833 74.167 60.000 74.167 L 59.167 74.167 59.167 75.833 L 59.167 77.500 58.333 77.500 L 57.500 77.500 57.500 79.271 L 57.500 81.042 57.006 80.943 C 56.735 80.889,56.467 80.918,56.412 81.008 C 56.356 81.098,56.229 81.122,56.129 81.060 C 56.026 80.996,55.996 81.026,56.060 81.129 C 56.122 81.229,56.098 81.356,56.008 81.412 C 55.903 81.476,55.844 85.886,55.844 93.673 L 55.844 105.833 56.672 105.833 L 57.500 105.833 57.500 108.070 C 57.500 110.825,57.503 110.833,58.434 110.833 L 59.167 110.833 59.192 112.125 C 59.231 114.092,59.235 114.103,60.100 114.135 C 60.866 114.164,60.842 114.135,60.860 115.061 L 60.876 115.833 61.688 115.833 L 62.500 115.833 62.500 116.667 L 62.500 117.500 63.333 117.500 L 64.167 117.500 64.167 118.333 L 64.167 119.167 65.000 119.167 C 65.546 119.167,65.840 119.239,65.851 119.375 C 65.861 119.490,65.882 119.846,65.898 120.167 L 65.927 120.750 67.547 120.798 L 69.167 120.845 69.192 121.381 C 69.206 121.676,69.225 122.029,69.234 122.167 C 69.248 122.379,69.765 122.424,72.625 122.462 C 75.532 122.501,76.000 122.542,76.000 122.763 C 76.000 122.904,76.074 122.974,76.165 122.918 C 76.260 122.859,76.287 122.927,76.229 123.077 C 76.093 123.433,76.492 123.874,76.864 123.777 C 77.049 123.729,77.125 123.766,77.058 123.874 C 76.983 123.995,77.274 124.021,77.974 123.958 C 78.569 123.904,78.961 123.928,78.907 124.016 C 78.856 124.099,79.137 124.166,79.532 124.164 C 80.084 124.162,80.192 124.121,80.000 123.985 C 79.819 123.857,80.039 123.837,80.801 123.913 C 81.754 124.009,81.847 123.990,81.801 123.718 C 81.765 123.503,81.839 123.432,82.062 123.470 C 82.324 123.515,82.363 123.441,82.300 123.012 L 82.224 122.500 86.237 122.481 C 88.444 122.470,90.362 122.451,90.500 122.439 C 90.755 122.416,90.780 122.329,90.814 121.375 L 90.833 120.833 92.300 120.833 C 93.969 120.833,94.167 120.724,94.167 119.800 L 94.167 119.167 95.000 119.167 L 95.833 119.167 95.833 118.333 L 95.833 117.500 96.667 117.500 L 97.500 117.500 97.500 116.667 L 97.500 115.833 98.333 115.833 L 99.167 115.833 99.167 115.000 L 99.167 114.167 100.000 114.167 L 100.833 114.167 100.833 111.667 L 100.833 109.167 100.000 109.167 L 99.167 109.167 99.167 108.333 L 99.167 107.500 98.333 107.500 L 97.500 107.500 97.500 106.867 C 97.500 105.965,97.288 105.833,95.833 105.833 C 94.379 105.833,94.167 105.965,94.167 106.867 L 94.167 107.500 93.333 107.500 L 92.500 107.500 92.500 108.333 L 92.500 109.167 91.667 109.167 L 90.833 109.167 90.833 110.000 L 90.833 110.833 90.042 110.853 C 89.606 110.864,89.183 110.860,89.100 110.845 C 89.018 110.829,88.830 110.872,88.683 110.940 C 88.537 111.007,88.267 111.067,88.083 111.073 C 87.871 111.080,87.743 111.204,87.732 111.417 C 87.682 112.318,87.500 112.500,86.647 112.500 L 85.833 112.500 85.833 113.336 L 85.833 114.171 80.708 114.127 C 75.827 114.085,75.586 114.069,75.636 113.775 C 75.668 113.590,75.618 113.510,75.511 113.576 C 75.413 113.637,75.333 113.602,75.333 113.500 C 75.333 113.398,75.247 113.367,75.141 113.433 C 75.035 113.498,74.991 113.483,75.043 113.399 C 75.225 113.105,74.702 112.596,74.441 112.813 C 74.257 112.966,74.184 112.953,74.108 112.754 C 74.040 112.578,73.778 112.500,73.255 112.500 L 72.500 112.500 72.500 111.667 L 72.500 110.833 71.667 110.833 L 70.833 110.833 70.833 110.000 L 70.833 109.167 70.000 109.167 L 69.167 109.167 69.167 107.601 C 69.167 105.877,69.139 105.833,68.070 105.833 L 67.500 105.833 67.500 104.167 L 67.500 102.500 66.667 102.500 L 65.833 102.500 65.833 98.333 L 65.833 94.167 83.333 94.167 L 100.833 94.167 100.833 87.523 L 100.833 80.879 100.458 80.876 C 100.252 80.875,99.877 80.865,99.625 80.853 L 99.167 80.833 99.167 78.333 L 99.167 75.833 98.333 75.833 L 97.500 75.833 97.500 74.167 L 97.500 72.500 96.667 72.500 L 95.833 72.500 95.833 71.667 L 95.833 70.833 95.000 70.833 L 94.167 70.833 94.167 70.000 L 94.167 69.167 93.333 69.167 L 92.500 69.167 92.500 68.434 C 92.500 67.539,92.419 67.500,90.570 67.500 L 89.167 67.500 89.167 66.768 C 89.167 65.817,89.361 65.858,84.816 65.839 C 80.510 65.822,80.777 65.868,80.797 65.147 C 80.806 64.858,80.723 64.535,80.614 64.430 C 80.328 64.151,77.955 64.166,77.691 64.448 M131.075 64.404 C 130.988 64.503,130.909 64.829,130.899 65.129 C 130.874 65.874,131.172 65.822,126.794 65.839 C 122.518 65.856,122.552 65.848,122.533 66.809 C 122.518 67.525,122.663 67.464,120.826 67.526 C 119.366 67.576,119.234 67.608,119.224 67.915 C 119.183 69.244,119.238 69.167,118.333 69.167 L 117.500 69.167 117.500 70.000 L 117.500 70.833 116.667 70.833 L 115.833 70.833 115.833 71.667 L 115.833 72.500 115.000 72.500 L 114.167 72.500 114.167 73.333 L 114.167 74.167 113.333 74.167 L 112.500 74.167 112.500 74.981 C 112.500 75.833,112.318 76.015,111.417 76.065 C 111.204 76.077,111.080 76.204,111.073 76.417 C 111.067 76.600,111.007 76.870,110.940 77.017 C 110.872 77.164,110.829 77.351,110.845 77.433 C 110.991 78.215,110.807 79.167,110.510 79.167 C 110.332 79.167,110.137 79.247,110.076 79.345 C 110.016 79.443,109.864 79.483,109.738 79.435 C 109.613 79.387,109.459 79.431,109.396 79.533 C 109.327 79.645,109.358 79.671,109.474 79.599 C 109.750 79.429,109.713 79.754,109.430 79.989 C 109.244 80.144,109.189 80.781,109.175 82.959 C 109.165 84.484,109.141 85.748,109.120 85.767 C 109.100 85.787,108.746 85.831,108.333 85.865 L 107.583 85.928 107.583 94.033 C 107.583 98.492,107.633 102.188,107.693 102.249 C 107.819 102.375,108.252 102.469,108.792 102.487 C 109.163 102.500,109.167 102.522,109.167 105.000 C 109.167 107.111,109.206 107.500,109.417 107.500 C 109.554 107.500,109.667 107.599,109.667 107.721 C 109.667 107.989,110.361 108.667,110.636 108.667 C 110.765 108.667,110.835 109.000,110.839 109.625 C 110.842 110.202,110.941 110.712,111.089 110.907 C 111.223 111.085,111.328 111.347,111.322 111.490 C 111.313 111.676,111.269 111.655,111.167 111.417 C 111.088 111.233,111.018 111.182,111.012 111.303 C 110.990 111.709,111.352 112.195,111.605 112.098 C 111.743 112.045,111.806 112.076,111.749 112.169 C 111.692 112.261,111.835 112.333,112.073 112.333 C 112.479 112.333,112.500 112.378,112.500 113.250 L 112.500 114.167 113.333 114.167 L 114.167 114.167 114.167 115.000 L 114.167 115.833 115.000 115.833 L 115.833 115.833 115.833 116.667 L 115.833 117.500 116.667 117.500 L 117.500 117.500 117.500 118.333 L 117.500 119.167 118.333 119.167 L 119.167 119.167 119.167 119.736 C 119.167 120.806,119.211 120.833,120.934 120.833 L 122.500 120.833 122.525 121.292 C 122.563 121.976,122.581 122.065,122.719 122.287 C 122.817 122.443,125.129 122.492,132.673 122.497 L 142.500 122.505 142.500 121.669 L 142.500 120.833 144.167 120.833 L 145.833 120.833 145.833 120.000 L 145.833 119.167 147.500 119.167 L 149.167 119.167 149.167 118.333 L 149.167 117.500 150.000 117.500 L 150.833 117.500 150.833 116.667 L 150.833 115.833 151.658 115.833 L 152.483 115.833 152.533 114.958 C 152.580 114.146,152.611 114.087,152.977 114.139 C 153.226 114.174,153.329 114.128,153.259 114.014 C 153.189 113.901,153.292 113.849,153.532 113.875 C 153.844 113.909,153.909 113.844,153.875 113.532 C 153.852 113.320,153.899 113.187,153.978 113.236 C 154.057 113.285,154.122 112.954,154.122 112.500 C 154.122 112.046,154.070 111.706,154.007 111.746 C 153.944 111.785,153.898 111.653,153.904 111.453 C 153.911 111.253,153.842 111.081,153.750 111.072 C 153.658 111.062,153.438 110.991,153.260 110.914 C 153.044 110.820,152.914 110.842,152.868 110.980 C 152.817 111.132,152.718 111.114,152.494 110.911 C 152.321 110.755,152.233 110.522,152.290 110.374 C 152.356 110.201,152.324 110.153,152.195 110.232 C 152.088 110.299,152.000 110.269,152.000 110.167 C 152.000 110.064,151.913 110.034,151.808 110.099 C 151.702 110.165,151.658 110.150,151.709 110.066 C 151.891 109.772,151.369 109.263,151.108 109.480 C 150.924 109.633,150.851 109.620,150.775 109.421 C 150.707 109.245,150.445 109.167,149.922 109.167 L 149.167 109.167 149.167 108.333 L 149.167 107.500 147.500 107.500 L 145.833 107.500 145.833 108.333 L 145.833 109.167 145.000 109.167 L 144.167 109.167 144.167 110.000 L 144.167 110.833 143.333 110.833 L 142.500 110.833 142.500 111.667 L 142.500 112.500 141.667 112.500 L 140.833 112.500 140.833 113.333 L 140.833 114.167 138.292 114.200 C 136.894 114.219,135.527 114.236,135.254 114.238 C 134.568 114.244,134.198 114.656,134.294 115.308 L 134.371 115.833 133.436 115.833 C 132.460 115.833,132.407 115.785,132.491 114.957 C 132.530 114.578,132.162 114.214,131.745 114.221 C 131.564 114.224,130.535 114.213,129.458 114.196 L 127.500 114.167 127.500 113.333 L 127.500 112.500 126.667 112.500 C 125.832 112.500,125.760 112.441,125.823 111.803 C 125.856 111.464,125.332 110.814,125.127 110.941 C 124.718 111.194,124.167 110.821,124.164 110.288 C 124.160 109.418,123.925 109.215,122.875 109.179 C 122.538 109.168,122.500 109.083,122.500 108.333 L 122.500 107.500 121.667 107.500 L 120.833 107.500 120.833 105.833 L 120.833 104.167 120.000 104.167 L 119.167 104.167 119.146 101.167 C 119.120 97.432,119.151 97.615,118.533 97.575 C 118.377 97.565,118.081 97.544,117.875 97.529 L 117.500 97.500 117.500 93.333 C 117.500 89.129,117.511 89.049,118.073 89.157 C 118.401 89.220,119.009 88.983,118.914 88.828 C 118.859 88.739,118.898 88.667,119.002 88.667 C 119.106 88.667,119.177 88.498,119.160 88.292 C 119.143 88.085,119.138 86.698,119.148 85.208 L 119.167 82.500 120.000 82.500 L 120.833 82.500 120.833 80.833 L 120.833 79.167 121.667 79.167 L 122.500 79.167 122.500 78.333 L 122.500 77.500 123.333 77.500 L 124.167 77.500 124.167 76.667 L 124.167 75.833 125.000 75.833 L 125.833 75.833 125.833 75.000 L 125.833 74.167 127.500 74.167 C 128.870 74.167,129.167 74.122,129.167 73.917 C 129.167 73.779,129.266 73.667,129.388 73.667 C 129.656 73.667,130.333 72.972,130.333 72.698 C 130.333 72.553,131.074 72.500,133.083 72.500 L 135.833 72.500 135.833 73.071 C 135.833 74.069,136.078 74.167,138.595 74.167 L 140.833 74.167 140.833 75.000 L 140.833 75.833 141.667 75.833 L 142.500 75.833 142.500 76.667 L 142.500 77.500 143.333 77.500 L 144.167 77.500 144.167 78.333 L 144.167 79.167 145.833 79.167 L 147.500 79.167 147.500 78.333 L 147.500 77.500 148.333 77.500 L 149.167 77.500 149.167 76.667 L 149.167 75.833 150.000 75.833 L 150.833 75.833 150.833 73.333 L 150.833 70.833 150.000 70.833 L 149.167 70.833 149.167 70.000 L 149.167 69.167 148.333 69.167 L 147.500 69.167 147.500 68.417 C 147.500 68.004,147.425 67.657,147.333 67.646 C 147.242 67.634,147.092 67.606,147.000 67.583 C 146.908 67.560,146.233 67.532,145.500 67.521 L 144.167 67.500 144.167 66.768 C 144.167 65.807,144.438 65.856,138.980 65.838 C 133.770 65.822,134.110 65.871,134.131 65.147 C 134.139 64.858,134.057 64.535,133.948 64.430 C 133.695 64.184,131.288 64.163,131.075 64.404 M79.192 73.125 C 79.206 73.377,79.225 73.696,79.234 73.833 C 79.247 74.041,79.661 74.092,81.663 74.135 C 84.379 74.193,84.214 74.146,84.240 74.874 C 84.271 75.736,84.380 75.796,85.946 75.818 C 87.683 75.842,87.461 75.601,87.527 77.542 L 87.583 79.167 88.375 79.167 L 89.167 79.167 89.167 80.833 L 89.167 82.500 90.000 82.500 L 90.833 82.500 90.833 85.000 L 90.833 87.500 78.333 87.500 L 65.833 87.500 65.833 85.000 L 65.833 82.500 66.667 82.500 L 67.500 82.500 67.500 80.833 L 67.500 79.167 68.333 79.167 L 69.167 79.167 69.167 78.333 L 69.167 77.500 70.000 77.500 L 70.833 77.500 70.833 76.667 L 70.833 75.833 71.667 75.833 L 72.500 75.833 72.500 75.000 L 72.500 74.167 75.083 74.167 C 76.504 74.167,77.667 74.102,77.667 74.023 C 77.667 73.944,77.855 73.915,78.084 73.959 C 78.663 74.070,79.044 73.710,78.960 73.134 C 78.922 72.877,78.953 72.667,79.029 72.667 C 79.105 72.667,79.178 72.873,79.192 73.125 M180.278 74.742 C 180.110 74.869,179.863 75.110,179.727 75.278 C 179.498 75.562,179.494 75.558,179.660 75.215 C 179.757 75.013,179.968 74.772,180.127 74.679 C 180.545 74.435,180.634 74.472,180.278 74.742 M365.709 123.583 C 365.711 123.950,365.745 124.080,365.785 123.873 C 365.824 123.666,365.823 123.366,365.781 123.206 C 365.739 123.047,365.707 123.217,365.709 123.583 M229.410 123.344 C 229.344 123.451,229.423 123.501,229.608 123.469 C 229.823 123.433,229.909 123.511,229.891 123.726 C 229.872 123.945,229.916 123.984,230.042 123.858 C 230.167 123.733,230.157 123.605,230.006 123.424 C 229.756 123.123,229.563 123.097,229.410 123.344 " stroke="none" fill="#a49484" fill-rule="evenodd"></path><path id="path3" d="M61.416 71.501 C 60.990 71.972,61.171 72.016,61.619 71.550 C 61.822 71.339,61.927 71.167,61.853 71.167 C 61.779 71.167,61.582 71.317,61.416 71.501 M220.833 78.083 C 220.833 78.774,221.111 78.842,221.638 78.281 C 222.157 77.728,222.093 77.500,221.417 77.500 C 220.861 77.500,220.833 77.528,220.833 78.083 " stroke="none" fill="#f8b820" fill-rule="evenodd"></path><path id="path4" d="M335.379 79.784 C 335.106 80.200,335.080 80.967,335.038 89.736 C 334.992 99.198,334.990 99.239,334.634 99.619 C 334.278 99.997,334.241 100.000,329.966 100.000 C 325.722 100.000,324.764 100.106,324.453 100.608 C 324.264 100.912,335.056 100.671,335.367 100.364 C 335.612 100.123,335.953 79.333,335.712 79.333 C 335.691 79.333,335.541 79.536,335.379 79.784 M365.186 79.611 C 365.159 79.881,365.345 80.333,365.482 80.333 C 365.545 80.333,365.608 80.166,365.624 79.960 C 365.644 79.691,365.612 79.652,365.510 79.818 C 365.396 80.001,365.350 79.983,365.286 79.733 C 365.242 79.559,365.197 79.504,365.186 79.611 M365.583 101.917 C 365.583 113.587,365.640 123.100,365.708 123.058 C 365.872 122.957,365.872 80.877,365.708 80.776 C 365.640 80.733,365.583 90.247,365.583 101.917 M365.350 124.215 C 365.221 124.457,365.054 124.616,364.977 124.569 C 364.900 124.522,364.887 124.612,364.948 124.770 C 365.036 125.000,364.995 125.034,364.742 124.937 C 364.569 124.870,364.480 124.869,364.546 124.935 C 364.611 125.000,364.515 125.158,364.332 125.286 C 363.838 125.633,363.930 125.806,364.542 125.680 C 364.840 125.620,365.083 125.485,365.083 125.382 C 365.083 125.279,365.152 125.132,365.235 125.056 C 365.320 124.977,365.343 124.993,365.288 125.091 C 365.233 125.187,365.262 125.375,365.351 125.508 C 365.492 125.717,365.509 125.716,365.481 125.500 C 365.462 125.362,365.502 125.125,365.569 124.972 C 365.637 124.820,365.667 124.488,365.637 124.235 L 365.583 123.775 365.350 124.215 " stroke="none" fill="#ccb89c" fill-rule="evenodd"></path></g></svg>