<svg id="svg" version="1.1" xmlns="http://www.w3.org/2000/svg" xmlns:xlink="http://www.w3.org/1999/xlink" width="400" height="294.7368421052631" viewBox="0, 0, 400,294.7368421052631"><g id="svgg"><path id="path0" d="M301.673 36.092 C 301.573 36.488,301.574 36.944,301.673 37.106 C 301.778 37.276,301.387 37.438,300.743 37.491 C 299.714 37.576,299.633 37.650,299.645 38.494 L 299.658 39.406 297.931 39.363 C 296.163 39.320,295.830 39.502,295.811 40.526 C 295.803 40.943,295.544 41.156,294.915 41.266 C 294.211 41.388,294.001 41.599,293.884 42.301 C 293.758 43.052,293.604 43.184,292.852 43.185 C 292.049 43.187,291.969 43.275,291.982 44.143 C 291.992 44.859,291.863 45.109,291.466 45.136 C 291.174 45.157,290.783 45.190,290.597 45.210 C 290.410 45.230,290.208 45.570,290.148 45.966 C 290.012 46.856,290.070 46.806,289.016 46.947 C 288.531 47.012,288.125 47.252,288.108 47.482 C 288.092 47.712,288.058 48.175,288.033 48.512 C 287.996 49.023,287.837 49.102,287.069 48.989 C 286.153 48.855,286.151 48.859,286.266 50.064 C 286.341 50.849,286.280 51.173,286.094 50.987 C 285.275 50.168,284.100 50.869,284.282 52.068 C 284.344 52.479,284.135 52.653,283.450 52.763 C 282.716 52.882,282.517 53.071,282.442 53.721 C 282.370 54.345,282.191 54.532,281.667 54.532 C 280.895 54.532,280.051 55.348,280.500 55.660 C 280.746 55.830,280.824 56.439,280.631 56.669 C 280.596 56.710,280.537 57.173,280.498 57.698 C 280.433 58.592,280.029 59.461,280.029 58.708 C 280.029 58.519,279.704 58.364,279.306 58.364 C 278.745 58.364,278.590 58.512,278.611 59.027 C 278.723 61.699,278.561 62.532,277.966 62.343 C 277.615 62.232,277.377 62.290,277.377 62.488 C 277.377 62.671,277.259 62.748,277.116 62.659 C 276.698 62.401,276.573 63.707,276.710 66.891 L 276.838 69.860 274.423 69.860 C 272.251 69.860,272.026 69.912,272.187 70.376 C 272.357 70.862,272.344 70.863,271.971 70.384 C 271.633 69.950,271.099 69.886,268.286 69.942 L 264.996 70.007 264.996 69.027 C 264.996 68.141,264.918 68.052,264.186 68.100 C 263.740 68.130,262.015 68.140,260.354 68.123 L 257.332 68.091 257.332 67.056 L 257.332 66.020 253.500 66.098 C 249.393 66.181,249.452 66.203,249.640 64.655 C 249.668 64.425,248.955 64.307,247.450 64.291 C 245.753 64.274,245.270 64.356,245.436 64.632 C 245.580 64.871,245.483 64.857,245.156 64.592 C 244.733 64.249,244.581 64.249,244.159 64.592 C 243.759 64.916,243.707 64.918,243.897 64.602 C 244.088 64.285,243.734 64.228,242.083 64.308 L 240.033 64.407 240.061 63.375 C 240.092 62.201,240.379 62.268,235.055 62.220 L 232.379 62.196 232.507 61.328 L 232.634 60.459 230.466 60.485 C 229.234 60.500,228.204 60.652,228.081 60.838 C 227.930 61.066,227.863 61.053,227.860 60.796 C 227.858 60.593,227.657 60.427,227.413 60.427 C 227.170 60.427,226.969 60.593,226.967 60.796 C 226.963 61.071,226.899 61.065,226.713 60.771 C 226.575 60.554,226.379 60.388,226.275 60.402 C 225.201 60.546,224.940 60.375,224.853 59.469 C 224.755 58.450,221.870 57.877,221.301 58.763 C 221.140 59.015,221.084 59.013,221.080 58.757 C 221.077 58.524,220.432 58.429,219.086 58.462 L 217.097 58.511 217.097 57.627 C 217.097 56.797,217.019 56.737,215.844 56.652 C 215.103 56.599,214.591 56.689,214.591 56.873 C 214.591 57.045,214.451 57.185,214.279 57.185 C 214.107 57.185,214.055 57.042,214.164 56.866 C 214.281 56.676,214.140 56.571,213.813 56.605 C 213.511 56.637,211.971 56.648,210.391 56.629 L 207.517 56.595 207.517 55.743 C 207.517 55.237,207.327 54.817,207.050 54.711 C 206.262 54.408,201.621 54.507,201.621 54.827 C 201.621 54.989,201.481 55.122,201.309 55.122 C 201.137 55.122,201.079 54.989,201.179 54.827 C 201.291 54.645,200.789 54.532,199.870 54.532 C 198.876 54.532,198.377 54.655,198.374 54.901 C 198.371 55.145,198.275 55.121,198.088 54.827 C 197.851 54.453,197.710 54.445,197.178 54.775 C 196.832 54.990,196.637 55.023,196.744 54.849 C 196.872 54.641,196.489 54.532,195.633 54.532 C 194.420 54.532,194.313 54.469,194.151 53.659 L 193.977 52.787 190.356 52.796 C 184.735 52.810,184.471 52.794,184.682 52.452 C 184.788 52.281,184.794 51.816,184.694 51.420 L 184.513 50.700 179.968 50.700 C 177.255 50.700,175.348 50.819,175.239 50.995 C 175.139 51.157,174.899 51.288,174.706 51.285 C 174.493 51.282,174.529 51.164,174.797 50.983 C 175.110 50.773,174.507 50.694,172.734 50.713 C 169.291 50.751,169.261 50.747,169.276 50.332 C 169.327 48.956,169.363 48.971,165.881 48.955 C 164.057 48.948,161.868 49.052,161.017 49.187 C 160.166 49.322,159.469 49.353,159.469 49.254 C 159.469 49.156,152.671 49.077,144.363 49.077 L 129.256 49.079 129.269 49.965 L 129.282 50.851 127.507 50.792 C 126.395 50.755,125.649 50.865,125.509 51.085 C 125.339 51.353,125.284 51.349,125.281 51.069 C 125.278 50.866,125.136 50.700,124.964 50.700 C 124.792 50.700,124.752 50.866,124.873 51.069 C 125.043 51.351,124.996 51.359,124.670 51.104 C 123.966 50.551,118.008 50.601,117.793 51.161 C 117.693 51.423,117.744 51.538,117.913 51.434 C 118.078 51.331,118.056 51.582,117.862 52.008 C 117.517 52.765,116.659 52.956,114.428 52.773 C 114.055 52.742,113.532 52.893,113.266 53.109 C 112.918 53.391,112.845 53.397,113.004 53.132 C 113.174 52.849,112.672 52.763,110.850 52.763 C 108.374 52.763,108.344 52.780,108.395 54.164 C 108.409 54.519,107.592 54.658,106.175 54.542 C 105.801 54.511,105.278 54.662,105.013 54.877 C 104.665 55.159,104.591 55.166,104.751 54.901 C 104.913 54.630,104.654 54.532,103.776 54.532 C 102.550 54.532,102.414 54.702,102.529 56.080 C 102.577 56.649,102.529 56.657,99.431 56.598 C 97.297 56.558,96.261 57.147,96.835 58.075 C 96.944 58.251,96.338 58.364,95.286 58.364 C 93.422 58.364,92.852 58.689,92.852 59.749 C 92.852 60.387,92.738 60.427,90.948 60.427 L 89.045 60.427 89.127 61.474 C 89.173 62.050,89.101 62.588,88.967 62.671 C 88.834 62.753,88.725 62.680,88.725 62.508 C 88.725 62.076,85.980 62.112,85.542 62.550 C 85.347 62.744,85.188 63.209,85.188 63.581 C 85.188 64.219,85.074 64.259,83.291 64.259 L 81.393 64.259 81.301 65.200 C 81.212 66.109,81.164 66.140,79.882 66.117 C 78.092 66.085,77.469 66.442,77.701 67.366 C 77.869 68.036,77.802 68.091,76.819 68.091 C 75.834 68.091,75.755 68.157,75.755 68.976 C 75.755 69.790,75.673 69.860,74.724 69.860 C 73.741 69.860,73.692 69.909,73.692 70.892 C 73.692 71.841,73.622 71.923,72.808 71.923 C 72.022 71.923,71.923 72.022,71.923 72.808 C 71.923 73.619,71.840 73.692,70.909 73.692 C 69.951 73.692,69.891 73.753,69.804 74.793 C 69.725 75.746,69.613 75.895,68.976 75.899 C 68.373 75.902,68.233 76.053,68.209 76.729 C 68.179 77.540,67.502 78.641,67.502 77.878 C 67.502 77.645,66.945 77.524,65.881 77.524 C 64.276 77.524,64.259 77.533,64.259 78.408 L 64.259 79.293 62.343 79.293 L 60.427 79.293 60.427 78.172 C 60.427 77.556,60.268 76.893,60.074 76.699 C 59.799 76.423,59.799 76.345,60.074 76.345 C 60.297 76.345,60.427 75.850,60.427 75.001 C 60.427 74.262,60.327 73.719,60.205 73.795 C 60.083 73.870,59.983 73.513,59.984 73.001 C 59.985 72.159,59.899 72.071,59.082 72.071 C 58.195 72.071,58.181 72.049,58.294 70.782 C 58.418 69.396,58.194 68.074,57.843 68.128 C 55.992 68.412,54.328 68.045,54.455 67.381 C 54.548 66.894,54.419 66.578,54.046 66.380 C 53.365 66.018,47.752 66.024,47.752 66.387 C 47.752 66.533,47.634 66.579,47.489 66.489 C 47.104 66.252,46.984 66.803,46.903 69.176 C 46.827 71.390,47.355 72.252,48.512 71.808 C 48.887 71.664,49.148 72.995,48.959 74.082 C 48.936 74.216,49.044 74.247,49.199 74.151 C 49.353 74.055,49.566 74.115,49.670 74.284 C 49.774 74.453,49.687 74.554,49.476 74.510 C 49.265 74.465,49.047 74.727,48.992 75.092 C 48.919 75.567,48.687 75.758,48.174 75.765 C 47.780 75.771,44.971 75.776,41.931 75.778 C 35.857 75.780,35.146 75.864,35.687 76.517 C 35.878 76.747,35.935 76.934,35.814 76.934 C 35.694 76.934,35.770 77.167,35.985 77.450 C 36.278 77.838,36.281 77.883,35.996 77.632 C 35.523 77.215,34.419 77.464,34.695 77.926 C 34.805 78.110,34.677 78.083,34.409 77.866 C 33.906 77.459,33.468 78.266,33.616 79.327 C 33.840 80.930,33.620 81.356,32.568 81.356 C 31.577 81.356,31.539 81.395,31.689 82.247 C 31.849 83.156,31.646 83.370,30.458 83.543 C 29.757 83.646,29.479 87.568,30.116 88.354 C 30.443 88.757,30.443 88.799,30.116 88.602 C 29.634 88.312,29.730 93.155,30.214 93.511 C 30.396 93.645,30.368 93.729,30.140 93.732 C 29.937 93.734,29.772 93.935,29.772 94.178 C 29.772 94.422,29.937 94.623,30.140 94.625 C 30.400 94.628,30.411 94.693,30.179 94.846 C 29.747 95.130,29.632 100.100,30.052 100.359 C 30.222 100.465,30.363 100.377,30.366 100.165 C 30.369 99.865,30.428 99.871,30.630 100.190 C 30.786 100.435,31.146 100.533,31.527 100.434 C 31.991 100.312,32.086 100.361,31.877 100.613 C 31.445 101.133,31.447 101.455,31.883 101.731 C 32.145 101.897,32.161 101.982,31.930 101.985 C 31.470 101.991,31.696 103.783,32.196 104.100 C 32.755 104.455,33.303 104.397,33.351 103.979 C 33.374 103.777,33.473 104.141,33.572 104.790 L 33.751 105.969 37.878 106.009 C 40.673 106.036,42.074 105.941,42.221 105.714 C 42.382 105.465,42.439 105.465,42.442 105.715 C 42.445 105.917,43.005 106.055,43.847 106.061 C 46.872 106.084,46.868 106.083,46.868 106.723 C 46.868 107.123,46.994 107.259,47.237 107.122 C 47.531 106.956,47.531 106.994,47.237 107.311 C 47.034 107.530,46.868 108.183,46.868 108.764 C 46.868 109.659,46.738 109.868,46.007 110.144 L 45.147 110.469 45.170 121.631 C 45.190 131.458,45.249 132.840,45.662 133.183 C 45.920 133.398,45.964 133.489,45.761 133.386 C 45.269 133.136,44.907 134.113,45.383 134.407 C 45.607 134.546,45.639 134.705,45.463 134.814 C 44.721 135.272,45.075 140.604,45.847 140.604 C 46.247 140.604,46.573 140.450,46.573 140.260 C 46.573 140.071,46.667 140.011,46.782 140.126 C 46.897 140.241,46.952 140.874,46.905 141.534 C 46.837 142.470,46.905 142.681,47.212 142.496 C 47.536 142.302,47.538 142.343,47.224 142.730 C 46.963 143.052,46.870 143.975,46.929 145.660 L 47.015 148.121 47.973 148.213 C 48.500 148.264,48.943 148.463,48.958 148.655 C 48.972 148.848,48.962 150.564,48.935 152.469 L 48.887 155.932 49.646 155.932 C 50.064 155.932,50.405 155.777,50.405 155.588 C 50.405 155.399,50.491 155.330,50.595 155.434 C 50.699 155.538,50.758 156.724,50.726 158.069 C 50.653 161.087,50.806 161.533,51.911 161.533 C 52.518 161.533,52.770 161.681,52.785 162.049 C 52.797 162.332,52.830 163.227,52.859 164.037 C 52.892 164.967,53.047 165.524,53.279 165.548 C 53.482 165.569,53.840 165.602,54.076 165.623 C 54.390 165.650,54.527 166.149,54.592 167.502 C 54.679 169.344,54.679 169.344,55.637 169.437 C 56.613 169.531,56.768 169.841,56.604 171.374 C 56.571 171.680,56.722 172.043,56.938 172.181 C 57.264 172.387,57.262 172.431,56.928 172.435 C 56.585 172.439,56.585 172.515,56.928 172.938 C 57.227 173.306,57.233 173.377,56.952 173.208 C 56.645 173.023,56.588 174.125,56.657 178.900 L 56.743 184.820 55.613 184.820 C 54.836 184.820,54.523 184.935,54.613 185.188 C 54.684 185.391,54.632 185.855,54.497 186.220 C 54.333 186.663,54.363 186.883,54.588 186.883 C 54.774 186.883,54.855 186.953,54.769 187.038 C 54.684 187.124,54.271 187.064,53.852 186.904 C 53.217 186.663,53.060 186.707,52.915 187.163 C 52.639 188.034,52.840 189.817,53.191 189.607 C 53.361 189.506,53.330 189.633,53.122 189.890 C 52.833 190.246,52.764 191.949,52.827 197.094 L 52.911 203.832 53.721 203.816 C 54.499 203.800,54.532 203.859,54.532 205.257 C 54.532 206.296,54.680 206.830,55.048 207.116 C 55.536 207.496,55.535 207.508,55.032 207.332 C 54.558 207.167,54.505 207.321,54.547 208.732 C 54.617 211.074,54.741 211.349,55.731 211.349 C 56.522 211.349,56.595 211.436,56.595 212.380 C 56.595 212.948,56.728 213.412,56.890 213.412 C 57.052 213.412,57.185 213.876,57.185 214.444 C 57.185 215.011,57.058 215.475,56.902 215.475 C 56.728 215.475,56.613 219.475,56.603 225.940 C 56.592 232.839,56.688 236.404,56.886 236.404 C 57.058 236.404,57.185 237.219,57.185 238.320 C 57.185 239.374,57.060 240.236,56.907 240.236 C 56.740 240.236,56.628 243.235,56.626 247.732 L 56.623 255.228 57.493 255.419 C 58.391 255.617,58.606 256.822,58.373 260.354 C 58.324 261.097,58.407 261.164,59.374 261.164 C 60.384 261.164,60.427 261.207,60.427 262.209 C 60.427 262.874,60.561 263.236,60.796 263.206 C 61.861 263.067,62.464 263.250,62.306 263.662 C 61.862 264.819,62.686 264.954,70.260 264.965 L 77.524 264.975 77.524 264.101 C 77.524 263.333,77.627 263.228,78.382 263.228 L 79.241 263.228 79.236 255.713 C 79.232 251.374,79.119 248.267,78.967 248.361 C 78.822 248.451,78.703 248.381,78.703 248.206 C 78.703 248.024,78.421 247.960,78.040 248.056 C 77.395 248.218,77.379 248.168,77.476 246.280 C 77.539 245.055,77.444 244.179,77.219 243.908 C 77.019 243.667,76.991 243.478,77.155 243.478 C 77.316 243.478,77.446 243.246,77.445 242.962 C 77.436 240.495,77.505 240.277,78.335 240.182 L 79.145 240.088 79.227 236.395 L 79.309 232.702 78.514 232.636 C 77.469 232.550,77.543 232.759,77.478 229.693 C 77.447 228.212,77.337 227.052,77.233 227.116 C 77.129 227.180,77.143 226.544,77.263 225.702 C 77.383 224.860,77.491 223.019,77.502 221.611 L 77.524 219.052 78.335 218.958 C 79.114 218.869,79.145 218.800,79.145 217.170 C 79.145 215.455,79.209 215.367,80.399 215.464 C 80.770 215.494,81.142 215.313,81.241 215.054 C 81.339 214.800,81.545 214.591,81.700 214.591 C 81.854 214.591,81.898 214.724,81.798 214.886 C 81.651 215.124,82.560 215.318,83.435 215.235 C 83.524 215.226,83.570 215.614,83.537 216.097 C 83.485 216.850,83.598 217.000,84.332 217.146 C 85.190 217.318,85.400 217.966,85.242 219.949 C 85.219 220.236,85.571 220.606,86.079 220.832 C 86.875 221.184,86.957 221.350,86.957 222.622 C 86.957 223.393,87.069 224.024,87.207 224.024 C 87.345 224.024,87.347 224.720,87.212 225.571 C 87.077 226.422,87.052 227.384,87.156 227.708 C 87.260 228.032,87.358 228.762,87.372 229.329 C 87.390 230.019,87.545 230.374,87.841 230.401 C 88.084 230.423,88.482 230.456,88.725 230.474 C 89.092 230.502,89.154 231.009,89.087 233.456 L 89.007 236.404 89.905 236.404 C 90.667 236.404,90.830 236.538,90.980 237.288 C 91.077 237.775,91.294 238.172,91.461 238.172 C 91.628 238.172,91.550 238.409,91.288 238.698 C 90.908 239.119,90.835 239.724,90.924 241.720 C 90.986 243.092,91.047 244.564,91.060 244.990 C 91.080 245.666,91.195 245.755,91.968 245.689 L 92.852 245.614 92.852 248.231 C 92.852 249.670,92.841 250.932,92.827 251.036 C 92.784 251.356,93.555 251.723,94.284 251.727 C 94.779 251.730,94.930 251.859,94.809 252.174 C 94.513 252.945,94.941 253.500,95.831 253.500 C 96.575 253.500,96.684 253.609,96.684 254.353 C 96.684 255.215,97.109 255.564,98.162 255.564 C 98.539 255.564,98.737 255.815,98.801 256.374 C 98.891 257.156,98.958 257.185,100.645 257.196 C 102.296 257.205,102.407 257.251,102.609 258.006 C 102.727 258.446,102.735 258.816,102.627 258.827 C 101.752 258.920,103.999 259.359,105.432 259.375 C 106.928 259.392,107.276 259.304,107.387 258.880 C 107.514 258.393,107.524 258.393,107.556 258.885 C 107.587 259.352,107.938 259.402,111.009 259.374 L 114.429 259.343 114.291 258.625 C 114.132 257.792,114.368 257.554,114.974 257.937 C 115.267 258.123,115.286 258.209,115.033 258.212 C 114.831 258.215,114.665 258.492,114.665 258.828 C 114.665 259.251,114.823 259.408,115.181 259.340 C 115.684 259.243,115.731 259.137,115.807 257.922 C 115.835 257.477,116.053 257.332,116.697 257.332 L 117.550 257.332 117.579 250.730 L 117.609 244.129 116.555 244.178 C 115.413 244.232,115.036 243.953,115.492 243.392 C 116.246 242.465,115.647 240.470,114.600 240.417 C 114.066 240.390,113.909 240.187,113.835 239.425 C 113.754 238.583,113.639 238.467,112.877 238.467 C 111.965 238.467,111.833 238.013,112.003 235.446 C 112.052 234.703,111.968 234.635,111.002 234.635 L 109.948 234.635 109.901 227.487 C 109.874 223.556,109.841 216.200,109.826 211.141 L 109.799 201.943 110.832 201.856 C 111.957 201.761,111.896 201.930,111.985 198.674 C 112.011 197.709,112.098 197.468,112.303 197.789 C 112.520 198.131,112.704 198.157,113.109 197.906 C 113.730 197.521,114.014 194.446,113.487 193.811 C 113.250 193.526,113.251 193.365,113.490 193.217 C 113.671 193.106,113.796 192.663,113.768 192.233 C 113.666 190.641,113.758 190.420,114.525 190.420 C 115.678 190.420,115.859 189.443,115.774 183.661 C 115.716 179.733,115.785 178.432,116.052 178.433 C 116.247 178.433,116.339 178.543,116.256 178.678 C 116.077 178.967,116.488 178.998,117.146 178.745 C 117.536 178.595,117.612 177.976,117.612 174.949 C 117.612 171.908,117.692 171.268,118.111 170.928 C 118.450 170.653,118.539 170.641,118.388 170.892 C 118.240 171.139,118.367 171.260,118.774 171.260 C 119.108 171.260,119.404 171.094,119.432 170.892 C 119.527 170.197,119.610 168.754,119.643 167.227 C 119.674 165.788,119.723 165.693,120.486 165.605 C 121.235 165.519,121.295 165.416,121.270 164.245 C 121.256 163.547,121.322 163.084,121.418 163.214 C 121.729 163.637,123.210 163.665,123.259 163.249 C 123.428 161.838,123.356 161.002,123.080 161.166 C 122.910 161.268,122.939 161.144,123.144 160.890 C 123.350 160.636,123.440 160.226,123.345 159.979 C 123.250 159.731,123.335 159.429,123.533 159.306 C 123.764 159.164,123.818 159.206,123.683 159.424 C 123.542 159.653,123.768 159.764,124.375 159.764 C 124.871 159.764,125.276 159.624,125.276 159.452 C 125.276 159.280,125.144 159.222,124.982 159.322 C 124.819 159.422,124.687 159.290,124.687 159.027 C 124.687 158.765,124.819 158.632,124.982 158.732 C 125.144 158.833,125.276 158.708,125.276 158.455 C 125.276 158.127,125.592 157.986,126.382 157.962 C 126.990 157.943,127.620 157.897,127.782 157.859 C 127.944 157.821,128.309 157.770,128.592 157.746 C 128.957 157.714,129.108 157.446,129.108 156.833 L 129.108 155.965 132.941 155.875 L 136.774 155.785 136.944 156.694 C 137.038 157.194,137.269 157.629,137.459 157.661 C 137.999 157.753,144.383 157.990,146.397 157.993 C 148.138 157.995,148.223 158.030,148.513 158.862 L 148.815 159.729 156.027 159.710 C 163.519 159.691,164.039 159.756,163.796 160.686 C 163.489 161.860,169.392 162.443,170.261 161.324 C 170.641 160.836,170.658 160.835,170.492 161.312 C 170.357 161.702,170.472 161.828,170.965 161.828 C 171.459 161.828,171.574 161.702,171.438 161.312 C 171.276 160.846,171.299 160.848,171.677 161.334 C 172.035 161.796,172.453 161.859,174.613 161.776 L 177.131 161.680 177.217 162.562 C 177.311 163.524,178.218 163.960,178.663 163.257 C 178.867 162.934,178.917 162.943,178.924 163.301 C 178.932 163.694,178.965 163.694,179.219 163.301 C 179.409 163.007,179.506 162.982,179.509 163.228 C 179.515 163.690,183.219 163.745,183.502 163.287 C 183.633 163.075,183.822 163.085,184.103 163.319 C 184.329 163.506,185.019 163.611,185.637 163.552 C 186.706 163.450,186.754 163.482,186.644 164.231 C 186.463 165.464,187.166 165.625,192.763 165.629 C 198.402 165.634,198.029 165.570,198.182 166.562 L 198.293 167.281 208.740 167.241 L 219.187 167.202 219.256 168.110 C 219.338 169.184,219.334 169.179,220.192 169.344 C 221.056 169.511,220.992 169.388,221.181 171.260 C 221.271 172.152,221.350 172.915,221.357 172.955 C 221.365 172.996,221.702 173.029,222.108 173.029 C 222.594 173.029,222.845 173.193,222.845 173.512 C 222.845 173.778,223.077 174.186,223.360 174.418 C 223.644 174.651,223.728 174.768,223.548 174.679 C 222.813 174.317,222.816 179.979,223.550 180.467 C 223.730 180.586,224.154 180.686,224.493 180.688 C 225.042 180.692,225.089 180.814,224.924 181.798 C 224.780 182.653,224.616 182.882,224.204 182.810 C 223.828 182.744,223.739 182.832,223.903 183.105 C 224.093 183.421,224.051 183.424,223.676 183.120 C 222.806 182.416,222.544 186.299,223.202 190.137 C 223.499 191.869,223.492 192.266,223.157 192.472 C 222.826 192.677,222.795 193.715,222.981 198.277 C 223.106 201.332,223.175 203.965,223.135 204.127 C 222.913 205.020,222.867 219.687,223.084 220.119 C 223.691 221.327,223.154 223.099,222.152 223.196 L 221.223 223.287 221.163 225.497 C 221.131 226.713,221.097 227.940,221.090 228.224 C 221.080 228.572,220.840 228.740,220.349 228.740 C 219.361 228.740,219.072 229.448,219.206 231.540 C 219.348 233.744,219.349 233.024,219.199 238.901 C 219.040 245.097,219.127 245.763,220.089 245.763 C 221.065 245.763,221.034 245.676,221.115 248.609 L 221.187 251.219 222.163 251.627 C 222.904 251.936,223.139 252.215,223.139 252.780 C 223.139 253.206,223.297 253.506,223.508 253.478 C 224.607 253.336,224.908 253.524,224.908 254.353 C 224.908 255.220,225.333 255.564,226.406 255.564 C 226.828 255.564,226.971 255.772,226.971 256.384 L 226.971 257.204 229.653 257.269 C 232.751 257.344,232.814 257.366,232.705 258.358 C 232.598 259.338,232.963 259.406,237.878 259.319 L 241.857 259.248 241.949 258.290 C 242.030 257.454,242.149 257.332,242.888 257.332 C 243.837 257.332,244.031 256.955,244.021 255.122 C 244.018 254.473,244.027 252.972,244.042 251.787 L 244.068 249.631 245.026 249.723 L 245.984 249.816 245.990 252.321 C 245.997 254.926,246.274 255.982,246.753 255.227 C 246.940 254.932,247.008 254.924,247.011 255.195 C 247.013 255.398,247.214 255.564,247.458 255.564 C 247.891 255.564,247.983 255.783,247.979 256.817 C 247.977 257.125,248.199 257.332,248.528 257.332 C 248.831 257.332,249.079 257.190,249.079 257.017 C 249.079 256.382,249.968 257.611,250.028 258.327 C 250.095 259.139,251.114 259.617,251.496 259.016 C 251.673 258.737,251.724 258.737,251.727 259.015 C 251.731 259.287,253.550 259.357,259.322 259.310 L 266.912 259.248 267.005 258.290 C 267.059 257.727,267.261 257.332,267.496 257.332 C 267.715 257.332,267.962 257.167,268.044 256.964 C 268.162 256.669,268.197 256.669,268.215 256.964 C 268.247 257.461,270.487 257.454,270.678 256.956 C 271.658 254.403,270.666 249.321,269.292 249.848 C 268.791 250.041,268.785 250.022,268.722 247.752 C 268.684 246.384,268.624 246.272,267.888 246.187 C 267.235 246.112,267.078 245.929,267.003 245.155 C 266.920 244.295,266.825 244.215,265.881 244.215 L 264.849 244.215 264.876 242.299 C 264.892 241.245,264.779 240.135,264.626 239.832 C 264.432 239.446,264.446 239.341,264.672 239.481 C 265.024 239.698,265.159 226.265,264.815 225.367 C 264.664 224.975,264.552 224.958,264.168 225.269 C 263.809 225.559,263.754 225.561,263.925 225.276 C 264.065 225.044,263.976 224.908,263.687 224.908 C 263.318 224.908,263.228 224.531,263.228 222.992 C 263.228 221.272,263.288 221.076,263.817 221.076 C 264.141 221.076,264.407 220.935,264.407 220.764 C 264.407 220.592,264.539 220.534,264.702 220.634 C 264.894 220.753,264.996 218.819,264.996 215.051 C 264.996 210.637,264.910 209.284,264.628 209.281 C 264.355 209.277,264.363 209.210,264.657 209.024 C 264.935 208.848,265.024 208.286,264.952 207.167 C 264.858 205.698,264.899 205.570,265.438 205.662 C 266.805 205.894,267.014 205.073,267.052 199.337 C 267.058 198.283,267.153 198.084,267.649 198.084 C 267.973 198.084,268.239 197.944,268.239 197.772 C 268.239 197.600,268.385 197.550,268.563 197.660 C 268.786 197.798,268.866 197.409,268.820 196.425 C 268.724 194.383,268.738 194.344,269.672 194.157 C 270.756 193.940,270.884 193.211,270.888 187.251 L 270.892 182.756 271.702 182.756 C 272.358 182.756,272.521 182.616,272.555 182.021 C 272.579 181.617,272.481 181.358,272.338 181.447 C 272.195 181.535,272.155 181.406,272.249 181.159 C 272.344 180.913,272.508 180.723,272.615 180.737 C 274.158 180.941,274.396 180.724,274.600 178.924 C 274.751 177.586,274.916 177.150,275.278 177.134 C 277.982 177.016,278.226 176.902,278.316 175.717 C 278.357 175.187,278.514 174.676,278.666 174.582 C 278.817 174.488,278.847 174.565,278.731 174.752 C 278.581 174.995,279.032 175.092,280.307 175.092 C 281.289 175.092,282.109 174.959,282.130 174.797 C 282.150 174.635,282.200 174.370,282.240 174.208 C 282.281 174.046,282.331 173.780,282.351 173.618 C 282.371 173.456,282.776 173.324,283.250 173.324 C 283.824 173.324,284.158 173.151,284.248 172.808 C 284.376 172.316,284.384 172.316,284.417 172.808 C 284.457 173.407,285.329 173.493,285.909 172.955 C 286.227 172.660,286.264 172.660,286.098 172.955 C 285.962 173.196,286.092 173.324,286.472 173.324 C 286.793 173.324,287.122 173.158,287.203 172.955 C 287.322 172.660,287.357 172.660,287.375 172.955 C 287.435 173.906,287.988 173.184,287.988 172.154 C 287.988 171.202,288.076 171.018,288.460 171.165 C 288.720 171.265,289.049 171.161,289.193 170.935 C 289.379 170.641,289.454 170.628,289.458 170.892 C 289.463 171.363,290.998 171.374,291.466 170.906 C 291.661 170.712,291.820 170.314,291.820 170.022 C 291.820 169.708,292.036 169.492,292.351 169.492 C 292.643 169.492,293.060 169.326,293.278 169.123 C 293.597 168.827,293.633 168.830,293.460 169.135 C 293.297 169.423,293.448 169.470,294.080 169.331 C 295.561 169.006,295.652 168.933,295.652 168.093 L 295.652 167.266 297.568 167.368 L 299.484 167.470 299.484 166.565 C 299.484 166.067,299.584 165.651,299.705 165.641 C 299.827 165.631,300.656 165.597,301.548 165.567 C 303.148 165.513,303.170 165.500,303.261 164.554 C 303.346 163.673,303.437 163.596,304.386 163.596 C 305.266 163.596,305.393 163.513,305.242 163.038 C 305.142 162.721,305.255 162.289,305.503 162.041 C 305.744 161.800,305.859 161.521,305.759 161.421 C 305.658 161.320,305.731 161.238,305.920 161.238 C 306.109 161.238,306.264 161.371,306.264 161.533 C 306.264 161.950,308.431 161.900,308.858 161.474 C 309.052 161.279,309.212 160.782,309.212 160.368 L 309.212 159.617 322.402 159.617 C 336.492 159.617,335.598 159.706,335.707 158.290 C 335.734 157.928,336.288 157.848,338.762 157.848 C 342.560 157.848,343.336 157.648,343.459 156.636 L 343.552 155.867 347.779 155.914 C 351.174 155.951,351.960 155.885,351.775 155.578 C 351.587 155.265,351.631 155.265,352.013 155.575 C 352.375 155.868,354.280 155.935,360.397 155.869 L 368.312 155.785 368.406 154.974 C 368.465 154.457,368.679 154.157,368.995 154.146 C 369.268 154.137,370.366 154.125,371.434 154.119 C 373.736 154.107,373.976 153.993,374.108 152.845 C 374.194 152.095,374.333 151.970,375.092 151.962 C 375.815 151.955,375.991 151.818,376.056 151.216 C 376.100 150.811,376.156 150.343,376.179 150.176 C 376.203 150.010,376.565 149.877,376.984 149.882 C 377.710 149.889,377.745 149.815,377.751 148.268 C 377.757 146.768,377.812 146.639,378.488 146.545 C 379.663 146.381,379.946 145.953,379.911 144.395 C 379.873 142.717,379.889 142.691,380.946 142.603 C 381.725 142.539,381.739 142.501,381.659 140.760 L 381.577 138.983 382.609 138.836 L 383.640 138.688 383.699 136.959 C 383.764 135.028,383.841 134.878,384.761 134.865 C 385.597 134.854,385.848 133.646,385.058 133.442 C 384.550 133.310,384.550 133.302,385.065 133.269 C 385.364 133.250,385.545 133.071,385.470 132.867 C 385.396 132.664,385.176 132.535,384.982 132.579 C 384.787 132.624,384.714 132.522,384.818 132.353 C 384.922 132.184,385.116 132.113,385.249 132.195 C 385.381 132.277,385.472 132.114,385.449 131.832 C 385.423 131.494,385.727 131.225,386.341 131.044 C 387.408 130.730,387.620 130.105,387.620 127.276 C 387.620 125.830,387.507 125.427,386.982 125.002 C 386.534 124.639,386.449 124.422,386.695 124.270 C 386.898 124.144,387.011 124.201,386.964 124.407 C 386.919 124.601,387.030 124.815,387.209 124.882 C 387.417 124.959,387.536 124.522,387.536 123.674 C 387.536 122.944,387.423 122.415,387.286 122.500 C 387.149 122.585,387.116 122.448,387.213 122.197 C 387.330 121.890,387.208 121.727,386.841 121.703 C 384.190 121.530,382.979 121.542,382.436 121.749 C 382.057 121.893,381.677 121.868,381.497 121.688 C 381.319 121.510,380.909 121.482,380.501 121.620 C 380.120 121.749,379.644 121.823,379.443 121.785 C 379.242 121.746,378.809 121.859,378.481 122.034 C 378.021 122.280,377.902 122.266,377.962 121.973 C 378.016 121.709,377.744 121.620,377.082 121.684 C 376.163 121.773,376.124 121.734,376.124 120.726 C 376.124 119.722,376.078 119.676,375.092 119.676 C 374.091 119.676,373.839 119.310,374.026 118.128 C 374.063 117.891,373.635 117.808,372.808 117.892 C 372.421 117.931,372.292 117.726,372.292 117.073 C 372.292 116.186,371.874 115.844,370.794 115.844 C 370.254 115.844,370.100 115.553,370.207 114.734 C 370.264 114.299,369.941 114.175,368.239 113.980 C 367.540 113.900,367.058 113.953,367.149 114.100 C 367.238 114.245,367.106 114.284,366.854 114.188 C 366.565 114.077,366.396 113.644,366.396 113.012 C 366.396 112.097,366.321 112.012,365.512 112.012 C 364.654 112.012,364.628 111.970,364.623 110.612 C 364.618 108.936,364.288 108.327,363.384 108.327 C 362.841 108.327,362.694 108.143,362.619 107.369 C 362.529 106.428,362.344 106.291,361.312 106.396 C 360.774 106.450,360.684 105.993,360.787 103.722 C 360.836 102.650,359.839 101.930,359.014 102.440 C 358.786 102.581,358.545 99.934,358.698 98.968 C 358.717 98.847,358.500 98.743,358.217 98.737 C 357.526 98.723,356.541 98.104,356.441 97.620 C 356.396 97.405,356.496 97.314,356.662 97.416 C 356.851 97.533,356.964 97.112,356.964 96.292 C 356.964 95.027,356.928 94.974,355.932 94.787 C 354.844 94.583,354.843 94.582,354.848 92.336 C 354.850 91.148,354.805 91.083,353.991 91.083 C 353.162 91.083,352.897 90.595,353.118 89.473 C 353.219 88.962,352.817 87.259,352.603 87.290 C 351.421 87.465,351.069 87.219,351.069 86.220 C 351.069 85.652,350.969 85.204,350.847 85.223 C 349.716 85.401,349.300 85.148,349.300 84.281 C 349.300 83.435,349.236 83.381,348.342 83.471 C 347.428 83.562,347.380 83.516,347.292 82.461 C 347.209 81.455,347.123 81.356,346.334 81.356 C 345.563 81.356,345.468 81.256,345.468 80.449 C 345.468 79.604,345.404 79.549,344.510 79.639 C 343.620 79.728,343.545 79.666,343.459 78.771 C 343.408 78.241,343.242 77.884,343.091 77.978 C 342.939 78.072,342.815 78.009,342.815 77.840 C 342.815 77.670,342.583 77.550,342.299 77.574 C 340.302 77.742,339.612 77.528,339.518 76.713 L 339.425 75.903 336.699 75.818 C 334.356 75.745,333.971 75.662,333.967 75.228 C 333.956 73.923,333.563 73.790,329.477 73.713 C 328.564 73.696,328.371 73.586,328.371 73.085 C 328.371 72.751,328.240 72.559,328.080 72.658 C 327.913 72.761,327.864 72.643,327.964 72.381 C 328.099 72.029,327.932 71.923,327.243 71.923 C 326.446 71.923,326.335 71.816,326.253 70.965 C 326.174 70.142,326.037 69.995,325.276 69.921 L 324.392 69.834 324.438 65.425 C 324.464 62.897,324.371 61.086,324.220 61.179 C 324.075 61.269,324.040 61.125,324.142 60.859 C 324.277 60.508,324.176 60.393,323.770 60.436 C 322.540 60.567,322.476 60.471,322.476 58.501 C 322.476 56.686,322.443 56.592,321.904 56.881 C 321.524 57.084,321.272 57.088,321.150 56.891 C 320.969 56.598,321.030 56.565,321.887 56.488 C 322.817 56.404,322.431 54.696,321.444 54.532 C 320.702 54.408,320.555 54.243,320.525 53.500 C 320.431 51.088,320.302 50.868,319.013 50.916 C 318.788 50.924,318.644 50.540,318.644 49.930 C 318.644 48.985,318.588 48.931,317.612 48.931 C 316.611 48.931,316.359 48.566,316.546 47.384 C 316.565 47.262,316.415 47.148,316.212 47.131 C 316.010 47.113,315.260 47.054,314.545 47.001 C 313.152 46.896,312.735 46.541,312.967 45.656 C 313.090 45.186,312.946 45.099,312.046 45.099 L 310.980 45.099 310.980 43.150 L 310.980 41.201 310.096 41.330 L 309.211 41.460 309.211 39.623 C 309.211 37.876,309.179 37.792,308.548 37.914 L 307.885 38.042 308.548 37.748 C 309.225 37.449,309.428 36.465,308.965 35.734 C 308.666 35.264,307.482 35.424,307.128 35.984 C 306.900 36.344,306.753 36.201,306.796 35.661 C 306.803 35.577,305.969 35.510,304.943 35.514 C 303.917 35.517,303.147 35.632,303.233 35.770 C 303.318 35.908,303.115 35.875,302.782 35.696 C 301.946 35.249,301.878 35.274,301.673 36.092 M298.118 40.529 C 298.025 40.771,297.815 40.887,297.652 40.786 C 297.488 40.685,297.239 40.785,297.098 41.009 C 296.926 41.280,296.839 41.298,296.836 41.061 C 296.831 40.727,297.615 40.117,298.075 40.097 C 298.191 40.092,298.211 40.287,298.118 40.529 M282.682 55.711 C 282.682 55.873,282.483 56.006,282.240 56.006 C 281.997 56.006,281.788 56.238,281.775 56.522 C 281.758 56.902,281.708 56.928,281.587 56.621 C 281.496 56.392,281.665 56.027,281.961 55.811 C 282.607 55.338,282.682 55.328,282.682 55.711 M45.144 89.967 C 45.064 90.809,44.906 91.083,44.503 91.083 C 44.209 91.083,43.759 91.164,43.502 91.262 C 43.139 91.402,43.036 91.239,43.036 90.525 C 43.036 90.022,42.903 89.609,42.741 89.609 C 41.980 89.609,42.560 89.046,43.405 88.965 C 45.280 88.784,45.258 88.771,45.144 89.967 M45.099 92.575 C 45.099 92.945,44.972 93.102,44.772 92.979 C 44.592 92.867,44.345 92.937,44.223 93.134 C 44.062 93.394,43.952 93.360,43.817 93.009 C 43.716 92.743,43.756 92.603,43.906 92.696 C 44.057 92.789,44.354 92.668,44.566 92.427 C 45.072 91.854,45.099 91.861,45.099 92.575 M134.039 155.558 C 133.428 155.622,132.499 155.621,131.976 155.555 C 131.452 155.490,131.953 155.438,133.088 155.439 C 134.223 155.441,134.651 155.494,134.039 155.558 M127.634 156.483 C 127.634 156.604,127.428 156.961,127.176 157.276 C 126.737 157.824,126.731 157.820,127.042 157.179 C 127.221 156.811,127.274 156.359,127.160 156.175 C 127.034 155.970,127.086 155.922,127.294 156.051 C 127.481 156.167,127.634 156.361,127.634 156.483 M200.245 165.831 C 200.015 166.429,199.684 166.347,199.684 165.693 C 199.684 165.376,199.839 165.196,200.045 165.275 C 200.243 165.351,200.333 165.602,200.245 165.831 M211.278 167.041 C 210.996 167.115,210.466 167.118,210.099 167.047 C 209.733 166.977,209.963 166.916,210.612 166.913 C 211.260 166.910,211.560 166.967,211.278 167.041 M223.944 187.687 C 223.880 188.298,223.827 187.870,223.826 186.735 C 223.824 185.601,223.876 185.100,223.942 185.623 C 224.007 186.147,224.008 187.075,223.944 187.687 M270.320 187.546 C 270.202 188.568,270.156 188.645,270.069 187.963 C 269.974 187.210,270.141 186.293,270.374 186.293 C 270.424 186.293,270.400 186.857,270.320 187.546 M54.248 188.196 C 54.052 188.432,53.985 188.777,54.099 188.962 C 54.231 189.175,54.115 189.260,53.781 189.196 C 53.491 189.140,53.220 188.924,53.178 188.718 C 53.135 188.504,53.170 188.481,53.259 188.665 C 53.353 188.859,53.587 188.744,53.843 188.377 C 54.078 188.042,54.346 187.767,54.437 187.767 C 54.529 187.767,54.444 187.960,54.248 188.196 M223.729 197.200 C 223.729 197.686,223.596 198.084,223.434 198.084 C 223.272 198.084,223.139 197.686,223.139 197.200 C 223.139 196.713,223.272 196.315,223.434 196.315 C 223.596 196.315,223.729 196.713,223.729 197.200 M223.729 212.510 C 223.729 216.700,223.617 219.342,223.434 219.455 C 223.241 219.574,223.139 217.247,223.139 212.692 C 223.139 208.259,223.246 205.748,223.434 205.748 C 223.622 205.748,223.729 208.199,223.729 212.510 M263.918 226.183 C 264.025 226.076,264.112 226.061,264.112 226.149 C 264.112 226.237,263.888 226.492,263.613 226.714 C 263.274 226.989,263.185 227.001,263.336 226.750 C 263.458 226.548,263.417 226.382,263.245 226.382 C 263.073 226.382,262.933 226.233,262.933 226.051 C 262.933 225.807,263.038 225.807,263.329 226.048 C 263.546 226.229,263.811 226.289,263.918 226.183 M78.119 239.053 C 77.888 239.196,77.569 239.232,77.410 239.134 C 77.251 239.035,77.377 238.862,77.691 238.748 C 78.396 238.492,78.689 238.701,78.119 239.053 M95.068 249.957 C 95.116 250.610,95.100 250.615,94.701 250.080 C 94.472 249.773,94.151 249.557,93.988 249.602 C 93.826 249.647,93.769 249.559,93.863 249.407 C 94.183 248.889,95.017 249.269,95.068 249.957 M229.329 256.136 C 229.329 256.270,229.031 256.454,228.666 256.546 C 228.066 256.698,228.052 256.677,228.514 256.331 C 228.795 256.120,228.928 255.840,228.809 255.708 C 228.690 255.577,228.758 255.565,228.961 255.681 C 229.164 255.798,229.329 256.003,229.329 256.136 M241.250 256.992 C 240.753 257.444,240.399 258.004,240.461 258.236 C 240.554 258.578,240.515 258.574,240.263 258.217 C 239.839 257.617,239.863 257.332,240.338 257.332 C 240.556 257.332,240.974 257.067,241.268 256.743 C 241.561 256.419,241.880 256.157,241.976 256.162 C 242.073 256.167,241.746 256.540,241.250 256.992 " stroke="none" fill="#942424" fill-rule="evenodd"></path><path id="path1" d="M306.264 35.546 C 306.264 35.936,307.110 36.191,307.244 35.841 C 307.357 35.549,307.226 35.425,306.837 35.454 C 306.522 35.478,306.264 35.519,306.264 35.546 M297.347 40.407 C 297.063 40.572,296.833 40.866,296.836 41.061 C 296.839 41.298,296.926 41.280,297.098 41.009 C 297.239 40.785,297.488 40.685,297.652 40.786 C 297.815 40.887,298.025 40.771,298.118 40.529 C 298.313 40.019,298.076 39.982,297.347 40.407 M153.058 49.146 C 153.666 49.210,154.661 49.210,155.269 49.146 C 155.877 49.083,155.380 49.031,154.164 49.031 C 152.948 49.031,152.450 49.083,153.058 49.146 M159.469 49.160 C 159.469 49.286,160.000 49.339,160.648 49.277 C 161.297 49.215,161.828 49.112,161.828 49.048 C 161.828 48.984,161.297 48.931,160.648 48.931 C 160.000 48.931,159.469 49.034,159.469 49.160 M281.961 55.811 C 281.665 56.027,281.496 56.392,281.587 56.621 C 281.708 56.928,281.758 56.902,281.775 56.522 C 281.788 56.238,281.997 56.006,282.240 56.006 C 282.483 56.006,282.682 55.873,282.682 55.711 C 282.682 55.328,282.607 55.338,281.961 55.811 M280.324 56.350 C 280.324 56.701,280.417 56.896,280.529 56.783 C 280.848 56.465,280.893 55.711,280.593 55.711 C 280.445 55.711,280.324 55.999,280.324 56.350 M321.123 56.638 C 320.870 57.047,321.511 57.162,322.010 56.797 C 322.473 56.458,322.463 56.427,321.885 56.427 C 321.538 56.427,321.195 56.522,321.123 56.638 M276.589 67.944 C 276.590 69.079,276.644 69.507,276.707 68.895 C 276.771 68.284,276.770 67.355,276.705 66.832 C 276.640 66.309,276.588 66.809,276.589 67.944 M35.372 76.702 C 35.372 76.952,35.604 77.339,35.888 77.562 C 36.365 77.935,36.370 77.924,35.962 77.405 C 35.718 77.096,35.564 76.787,35.618 76.717 C 35.672 76.648,35.639 76.513,35.544 76.419 C 35.450 76.324,35.372 76.451,35.372 76.702 M44.566 92.427 C 44.354 92.668,44.057 92.789,43.906 92.696 C 43.756 92.603,43.716 92.743,43.817 93.009 C 43.952 93.360,44.062 93.394,44.223 93.134 C 44.345 92.937,44.592 92.867,44.772 92.979 C 44.972 93.102,45.099 92.945,45.099 92.575 C 45.099 91.861,45.072 91.854,44.566 92.427 M377.991 121.871 C 377.991 122.199,378.120 122.228,378.554 121.995 C 378.864 121.829,379.285 121.758,379.490 121.837 C 379.694 121.915,380.049 121.861,380.277 121.716 C 380.556 121.540,380.249 121.452,379.342 121.449 C 378.358 121.446,377.991 121.560,377.991 121.871 M381.560 121.711 C 381.651 121.858,381.990 121.909,382.314 121.824 C 383.125 121.612,383.052 121.444,382.149 121.444 C 381.734 121.444,381.469 121.565,381.560 121.711 M45.174 130.140 C 45.177 130.789,45.237 131.019,45.308 130.652 C 45.378 130.286,45.376 129.755,45.302 129.473 C 45.228 129.192,45.171 129.492,45.174 130.140 M131.976 155.555 C 132.499 155.621,133.428 155.622,134.039 155.558 C 134.651 155.494,134.223 155.441,133.088 155.439 C 131.953 155.438,131.452 155.490,131.976 155.555 M127.160 156.175 C 127.274 156.359,127.221 156.811,127.042 157.179 C 126.731 157.820,126.737 157.824,127.176 157.276 C 127.723 156.593,127.748 156.332,127.294 156.051 C 127.086 155.922,127.034 155.970,127.160 156.175 M199.684 165.693 C 199.684 166.347,200.015 166.429,200.245 165.831 C 200.333 165.602,200.243 165.351,200.045 165.275 C 199.839 165.196,199.684 165.376,199.684 165.693 M210.099 167.047 C 210.466 167.118,210.996 167.115,211.278 167.041 C 211.560 166.967,211.260 166.910,210.612 166.913 C 209.963 166.916,209.733 166.977,210.099 167.047 M215.999 167.350 C 216.692 167.412,217.753 167.411,218.357 167.348 C 218.961 167.284,218.394 167.233,217.097 167.234 C 215.800 167.236,215.306 167.287,215.999 167.350 M222.894 175.461 L 222.944 176.713 223.060 175.602 C 223.134 174.894,223.293 174.562,223.498 174.689 C 223.691 174.809,223.736 174.752,223.610 174.548 C 223.171 173.839,222.846 174.254,222.894 175.461 M223.826 186.735 C 223.827 187.870,223.880 188.298,223.944 187.687 C 224.008 187.075,224.007 186.147,223.942 185.623 C 223.876 185.100,223.824 185.601,223.826 186.735 M270.124 186.711 C 270.035 186.940,270.011 187.504,270.069 187.963 C 270.156 188.645,270.202 188.568,270.320 187.546 C 270.469 186.257,270.404 185.980,270.124 186.711 M53.843 188.377 C 53.587 188.744,53.353 188.859,53.259 188.665 C 53.170 188.481,53.135 188.504,53.178 188.718 C 53.220 188.924,53.491 189.140,53.781 189.196 C 54.115 189.260,54.231 189.175,54.099 188.962 C 53.985 188.777,54.052 188.432,54.248 188.196 C 54.444 187.960,54.529 187.767,54.437 187.767 C 54.346 187.767,54.078 188.042,53.843 188.377 M222.879 190.641 C 222.859 191.696,222.970 192.483,223.139 192.483 C 223.474 192.483,223.474 191.000,223.139 189.683 C 222.960 188.979,222.907 189.175,222.879 190.641 M223.139 197.200 C 223.139 197.686,223.272 198.084,223.434 198.084 C 223.596 198.084,223.729 197.686,223.729 197.200 C 223.729 196.713,223.596 196.315,223.434 196.315 C 223.272 196.315,223.139 196.713,223.139 197.200 M222.845 202.063 C 222.845 203.658,222.929 204.877,223.032 204.774 C 223.238 204.568,223.186 199.506,222.975 199.296 C 222.903 199.224,222.845 200.469,222.845 202.063 M223.139 212.692 C 223.139 217.247,223.241 219.574,223.434 219.455 C 223.617 219.342,223.729 216.700,223.729 212.510 C 223.729 208.199,223.622 205.748,223.434 205.748 C 223.246 205.748,223.139 208.259,223.139 212.692 M109.774 212.380 C 109.774 215.136,109.818 216.303,109.873 214.974 C 109.927 213.644,109.927 211.389,109.873 209.963 C 109.819 208.536,109.775 209.624,109.774 212.380 M56.595 214.444 C 56.595 215.011,56.728 215.475,56.890 215.475 C 57.052 215.475,57.185 215.011,57.185 214.444 C 57.185 213.876,57.052 213.412,56.890 213.412 C 56.728 213.412,56.595 213.876,56.595 214.444 M222.890 221.518 L 222.918 223.287 223.140 221.960 C 223.262 221.231,223.249 220.435,223.112 220.192 C 222.956 219.916,222.873 220.415,222.890 221.518 M86.957 225.203 C 86.957 225.851,87.009 226.382,87.073 226.382 C 87.137 226.382,87.240 225.851,87.302 225.203 C 87.364 224.554,87.311 224.024,87.185 224.024 C 87.060 224.024,86.957 224.554,86.957 225.203 M77.222 225.852 C 77.144 226.615,77.189 227.130,77.322 226.996 C 77.455 226.863,77.519 226.239,77.464 225.610 L 77.364 224.466 77.222 225.852 M262.933 226.051 C 262.933 226.233,263.073 226.382,263.245 226.382 C 263.417 226.382,263.458 226.548,263.336 226.750 C 263.185 227.001,263.274 226.989,263.613 226.714 C 263.888 226.492,264.112 226.237,264.112 226.149 C 264.112 226.061,264.025 226.076,263.918 226.183 C 263.811 226.289,263.546 226.229,263.329 226.048 C 263.038 225.807,262.933 225.807,262.933 226.051 M219.013 234.783 C 219.013 236.215,219.076 237.323,219.153 237.246 C 219.366 237.033,219.407 232.573,219.197 232.363 C 219.095 232.262,219.013 233.351,219.013 234.783 M56.595 238.320 C 56.595 239.401,56.724 240.236,56.890 240.236 C 57.056 240.236,57.185 239.401,57.185 238.320 C 57.185 237.239,57.056 236.404,56.890 236.404 C 56.724 236.404,56.595 237.239,56.595 238.320 M90.823 237.987 C 90.793 238.986,90.846 239.082,91.245 238.750 C 91.495 238.542,91.577 238.294,91.426 238.198 C 91.275 238.103,91.085 237.760,91.004 237.436 C 90.921 237.101,90.842 237.339,90.823 237.987 M77.691 238.748 C 77.377 238.862,77.251 239.035,77.410 239.134 C 77.714 239.322,78.639 238.886,78.400 238.668 C 78.323 238.598,78.004 238.634,77.691 238.748 M219.139 242.157 C 219.031 242.737,219.024 243.293,219.125 243.394 C 219.225 243.494,219.307 243.249,219.307 242.849 C 219.307 242.450,219.451 241.978,219.628 241.802 C 219.847 241.583,219.851 241.422,219.643 241.293 C 219.464 241.182,219.255 241.541,219.139 242.157 M90.857 242.299 C 90.857 242.867,90.918 243.099,90.992 242.815 C 91.066 242.531,91.066 242.067,90.992 241.783 C 90.918 241.500,90.857 241.732,90.857 242.299 M93.863 249.407 C 93.769 249.559,93.826 249.647,93.988 249.602 C 94.151 249.557,94.472 249.773,94.701 250.080 C 95.100 250.615,95.116 250.610,95.068 249.957 C 95.017 249.269,94.183 248.889,93.863 249.407 M228.809 255.708 C 228.928 255.840,228.795 256.120,228.514 256.331 C 228.052 256.677,228.066 256.698,228.666 256.546 C 229.402 256.361,229.523 256.005,228.961 255.681 C 228.758 255.565,228.690 255.577,228.809 255.708 M241.268 256.743 C 240.974 257.067,240.556 257.332,240.338 257.332 C 239.863 257.332,239.839 257.617,240.263 258.217 C 240.515 258.574,240.554 258.578,240.461 258.236 C 240.399 258.004,240.753 257.444,241.250 256.992 C 241.746 256.540,242.073 256.167,241.976 256.162 C 241.880 256.157,241.561 256.419,241.268 256.743 M114.278 257.861 C 114.218 257.976,114.267 258.401,114.387 258.806 C 114.587 259.478,114.609 259.487,114.635 258.904 C 114.651 258.553,114.824 258.213,115.018 258.148 C 115.242 258.073,115.191 257.961,114.880 257.841 C 114.610 257.738,114.339 257.747,114.278 257.861 " stroke="none" fill="#982424" fill-rule="evenodd"></path><path id="path2" d="M306.264 35.546 C 306.264 35.936,307.110 36.191,307.244 35.841 C 307.357 35.549,307.226 35.425,306.837 35.454 C 306.522 35.478,306.264 35.519,306.264 35.546 M297.347 40.407 C 297.063 40.572,296.833 40.866,296.836 41.061 C 296.839 41.298,296.926 41.280,297.098 41.009 C 297.239 40.785,297.488 40.685,297.652 40.786 C 297.815 40.887,298.025 40.771,298.118 40.529 C 298.313 40.019,298.076 39.982,297.347 40.407 M153.058 49.146 C 153.666 49.210,154.661 49.210,155.269 49.146 C 155.877 49.083,155.380 49.031,154.164 49.031 C 152.948 49.031,152.450 49.083,153.058 49.146 M159.469 49.160 C 159.469 49.286,160.000 49.339,160.648 49.277 C 161.297 49.215,161.828 49.112,161.828 49.048 C 161.828 48.984,161.297 48.931,160.648 48.931 C 160.000 48.931,159.469 49.034,159.469 49.160 M281.961 55.811 C 281.665 56.027,281.496 56.392,281.587 56.621 C 281.708 56.928,281.758 56.902,281.775 56.522 C 281.788 56.238,281.997 56.006,282.240 56.006 C 282.483 56.006,282.682 55.873,282.682 55.711 C 282.682 55.328,282.607 55.338,281.961 55.811 M280.324 56.350 C 280.324 56.701,280.417 56.896,280.529 56.783 C 280.848 56.465,280.893 55.711,280.593 55.711 C 280.445 55.711,280.324 55.999,280.324 56.350 M321.123 56.638 C 320.870 57.047,321.511 57.162,322.010 56.797 C 322.473 56.458,322.463 56.427,321.885 56.427 C 321.538 56.427,321.195 56.522,321.123 56.638 M276.589 67.944 C 276.590 69.079,276.644 69.507,276.707 68.895 C 276.771 68.284,276.770 67.355,276.705 66.832 C 276.640 66.309,276.588 66.809,276.589 67.944 M35.372 76.702 C 35.372 76.952,35.604 77.339,35.888 77.562 C 36.365 77.935,36.370 77.924,35.962 77.405 C 35.718 77.096,35.564 76.787,35.618 76.717 C 35.672 76.648,35.639 76.513,35.544 76.419 C 35.450 76.324,35.372 76.451,35.372 76.702 M44.566 92.427 C 44.354 92.668,44.057 92.789,43.906 92.696 C 43.756 92.603,43.716 92.743,43.817 93.009 C 43.952 93.360,44.062 93.394,44.223 93.134 C 44.345 92.937,44.592 92.867,44.772 92.979 C 44.972 93.102,45.099 92.945,45.099 92.575 C 45.099 91.861,45.072 91.854,44.566 92.427 M377.991 121.871 C 377.991 122.199,378.120 122.228,378.554 121.995 C 378.864 121.829,379.285 121.758,379.490 121.837 C 379.694 121.915,380.049 121.861,380.277 121.716 C 380.556 121.540,380.249 121.452,379.342 121.449 C 378.358 121.446,377.991 121.560,377.991 121.871 M381.560 121.711 C 381.651 121.858,381.990 121.909,382.314 121.824 C 383.125 121.612,383.052 121.444,382.149 121.444 C 381.734 121.444,381.469 121.565,381.560 121.711 M45.174 130.140 C 45.177 130.789,45.237 131.019,45.308 130.652 C 45.378 130.286,45.376 129.755,45.302 129.473 C 45.228 129.192,45.171 129.492,45.174 130.140 M131.976 155.555 C 132.499 155.621,133.428 155.622,134.039 155.558 C 134.651 155.494,134.223 155.441,133.088 155.439 C 131.953 155.438,131.452 155.490,131.976 155.555 M127.160 156.175 C 127.274 156.359,127.221 156.811,127.042 157.179 C 126.731 157.820,126.737 157.824,127.176 157.276 C 127.723 156.593,127.748 156.332,127.294 156.051 C 127.086 155.922,127.034 155.970,127.160 156.175 M199.684 165.693 C 199.684 166.347,200.015 166.429,200.245 165.831 C 200.333 165.602,200.243 165.351,200.045 165.275 C 199.839 165.196,199.684 165.376,199.684 165.693 M210.099 167.047 C 210.466 167.118,210.996 167.115,211.278 167.041 C 211.560 166.967,211.260 166.910,210.612 166.913 C 209.963 166.916,209.733 166.977,210.099 167.047 M215.999 167.350 C 216.692 167.412,217.753 167.411,218.357 167.348 C 218.961 167.284,218.394 167.233,217.097 167.234 C 215.800 167.236,215.306 167.287,215.999 167.350 M222.894 175.461 L 222.944 176.713 223.060 175.602 C 223.134 174.894,223.293 174.562,223.498 174.689 C 223.691 174.809,223.736 174.752,223.610 174.548 C 223.171 173.839,222.846 174.254,222.894 175.461 M223.826 186.735 C 223.827 187.870,223.880 188.298,223.944 187.687 C 224.008 187.075,224.007 186.147,223.942 185.623 C 223.876 185.100,223.824 185.601,223.826 186.735 M270.124 186.711 C 270.035 186.940,270.011 187.504,270.069 187.963 C 270.156 188.645,270.202 188.568,270.320 187.546 C 270.469 186.257,270.404 185.980,270.124 186.711 M53.843 188.377 C 53.587 188.744,53.353 188.859,53.259 188.665 C 53.170 188.481,53.135 188.504,53.178 188.718 C 53.220 188.924,53.491 189.140,53.781 189.196 C 54.115 189.260,54.231 189.175,54.099 188.962 C 53.985 188.777,54.052 188.432,54.248 188.196 C 54.444 187.960,54.529 187.767,54.437 187.767 C 54.346 187.767,54.078 188.042,53.843 188.377 M222.879 190.641 C 222.859 191.696,222.970 192.483,223.139 192.483 C 223.474 192.483,223.474 191.000,223.139 189.683 C 222.960 188.979,222.907 189.175,222.879 190.641 M223.139 197.200 C 223.139 197.686,223.272 198.084,223.434 198.084 C 223.596 198.084,223.729 197.686,223.729 197.200 C 223.729 196.713,223.596 196.315,223.434 196.315 C 223.272 196.315,223.139 196.713,223.139 197.200 M222.845 202.063 C 222.845 203.658,222.929 204.877,223.032 204.774 C 223.238 204.568,223.186 199.506,222.975 199.296 C 222.903 199.224,222.845 200.469,222.845 202.063 M223.139 212.692 C 223.139 217.247,223.241 219.574,223.434 219.455 C 223.617 219.342,223.729 216.700,223.729 212.510 C 223.729 208.199,223.622 205.748,223.434 205.748 C 223.246 205.748,223.139 208.259,223.139 212.692 M109.774 212.380 C 109.774 215.136,109.818 216.303,109.873 214.974 C 109.927 213.644,109.927 211.389,109.873 209.963 C 109.819 208.536,109.775 209.624,109.774 212.380 M56.595 214.444 C 56.595 215.011,56.728 215.475,56.890 215.475 C 57.052 215.475,57.185 215.011,57.185 214.444 C 57.185 213.876,57.052 213.412,56.890 213.412 C 56.728 213.412,56.595 213.876,56.595 214.444 M222.890 221.518 L 222.918 223.287 223.140 221.960 C 223.262 221.231,223.249 220.435,223.112 220.192 C 222.956 219.916,222.873 220.415,222.890 221.518 M86.957 225.203 C 86.957 225.851,87.009 226.382,87.073 226.382 C 87.137 226.382,87.240 225.851,87.302 225.203 C 87.364 224.554,87.311 224.024,87.185 224.024 C 87.060 224.024,86.957 224.554,86.957 225.203 M77.222 225.852 C 77.144 226.615,77.189 227.130,77.322 226.996 C 77.455 226.863,77.519 226.239,77.464 225.610 L 77.364 224.466 77.222 225.852 M262.933 226.051 C 262.933 226.233,263.073 226.382,263.245 226.382 C 263.417 226.382,263.458 226.548,263.336 226.750 C 263.185 227.001,263.274 226.989,263.613 226.714 C 263.888 226.492,264.112 226.237,264.112 226.149 C 264.112 226.061,264.025 226.076,263.918 226.183 C 263.811 226.289,263.546 226.229,263.329 226.048 C 263.038 225.807,262.933 225.807,262.933 226.051 M219.013 234.783 C 219.013 236.215,219.076 237.323,219.153 237.246 C 219.366 237.033,219.407 232.573,219.197 232.363 C 219.095 232.262,219.013 233.351,219.013 234.783 M56.595 238.320 C 56.595 239.401,56.724 240.236,56.890 240.236 C 57.056 240.236,57.185 239.401,57.185 238.320 C 57.185 237.239,57.056 236.404,56.890 236.404 C 56.724 236.404,56.595 237.239,56.595 238.320 M90.823 237.987 C 90.793 238.986,90.846 239.082,91.245 238.750 C 91.495 238.542,91.577 238.294,91.426 238.198 C 91.275 238.103,91.085 237.760,91.004 237.436 C 90.921 237.101,90.842 237.339,90.823 237.987 M77.691 238.748 C 77.377 238.862,77.251 239.035,77.410 239.134 C 77.714 239.322,78.639 238.886,78.400 238.668 C 78.323 238.598,78.004 238.634,77.691 238.748 M219.139 242.157 C 219.031 242.737,219.024 243.293,219.125 243.394 C 219.225 243.494,219.307 243.249,219.307 242.849 C 219.307 242.450,219.451 241.978,219.628 241.802 C 219.847 241.583,219.851 241.422,219.643 241.293 C 219.464 241.182,219.255 241.541,219.139 242.157 M90.857 242.299 C 90.857 242.867,90.918 243.099,90.992 242.815 C 91.066 242.531,91.066 242.067,90.992 241.783 C 90.918 241.500,90.857 241.732,90.857 242.299 M93.863 249.407 C 93.769 249.559,93.826 249.647,93.988 249.602 C 94.151 249.557,94.472 249.773,94.701 250.080 C 95.100 250.615,95.116 250.610,95.068 249.957 C 95.017 249.269,94.183 248.889,93.863 249.407 M228.809 255.708 C 228.928 255.840,228.795 256.120,228.514 256.331 C 228.052 256.677,228.066 256.698,228.666 256.546 C 229.402 256.361,229.523 256.005,228.961 255.681 C 228.758 255.565,228.690 255.577,228.809 255.708 M241.268 256.743 C 240.974 257.067,240.556 257.332,240.338 257.332 C 239.863 257.332,239.839 257.617,240.263 258.217 C 240.515 258.574,240.554 258.578,240.461 258.236 C 240.399 258.004,240.753 257.444,241.250 256.992 C 241.746 256.540,242.073 256.167,241.976 256.162 C 241.880 256.157,241.561 256.419,241.268 256.743 M114.278 257.861 C 114.218 257.976,114.267 258.401,114.387 258.806 C 114.587 259.478,114.609 259.487,114.635 258.904 C 114.651 258.553,114.824 258.213,115.018 258.148 C 115.242 258.073,115.191 257.961,114.880 257.841 C 114.610 257.738,114.339 257.747,114.278 257.861 " stroke="none" fill="#982424" fill-rule="evenodd"></path><path id="path3" d="M306.264 35.546 C 306.264 35.936,307.110 36.191,307.244 35.841 C 307.357 35.549,307.226 35.425,306.837 35.454 C 306.522 35.478,306.264 35.519,306.264 35.546 M297.347 40.407 C 297.063 40.572,296.833 40.866,296.836 41.061 C 296.839 41.298,296.926 41.280,297.098 41.009 C 297.239 40.785,297.488 40.685,297.652 40.786 C 297.815 40.887,298.025 40.771,298.118 40.529 C 298.313 40.019,298.076 39.982,297.347 40.407 M153.058 49.146 C 153.666 49.210,154.661 49.210,155.269 49.146 C 155.877 49.083,155.380 49.031,154.164 49.031 C 152.948 49.031,152.450 49.083,153.058 49.146 M159.469 49.160 C 159.469 49.286,160.000 49.339,160.648 49.277 C 161.297 49.215,161.828 49.112,161.828 49.048 C 161.828 48.984,161.297 48.931,160.648 48.931 C 160.000 48.931,159.469 49.034,159.469 49.160 M281.961 55.811 C 281.665 56.027,281.496 56.392,281.587 56.621 C 281.708 56.928,281.758 56.902,281.775 56.522 C 281.788 56.238,281.997 56.006,282.240 56.006 C 282.483 56.006,282.682 55.873,282.682 55.711 C 282.682 55.328,282.607 55.338,281.961 55.811 M280.324 56.350 C 280.324 56.701,280.417 56.896,280.529 56.783 C 280.848 56.465,280.893 55.711,280.593 55.711 C 280.445 55.711,280.324 55.999,280.324 56.350 M321.123 56.638 C 320.870 57.047,321.511 57.162,322.010 56.797 C 322.473 56.458,322.463 56.427,321.885 56.427 C 321.538 56.427,321.195 56.522,321.123 56.638 M276.589 67.944 C 276.590 69.079,276.644 69.507,276.707 68.895 C 276.771 68.284,276.770 67.355,276.705 66.832 C 276.640 66.309,276.588 66.809,276.589 67.944 M35.372 76.702 C 35.372 76.952,35.604 77.339,35.888 77.562 C 36.365 77.935,36.370 77.924,35.962 77.405 C 35.718 77.096,35.564 76.787,35.618 76.717 C 35.672 76.648,35.639 76.513,35.544 76.419 C 35.450 76.324,35.372 76.451,35.372 76.702 M44.566 92.427 C 44.354 92.668,44.057 92.789,43.906 92.696 C 43.756 92.603,43.716 92.743,43.817 93.009 C 43.952 93.360,44.062 93.394,44.223 93.134 C 44.345 92.937,44.592 92.867,44.772 92.979 C 44.972 93.102,45.099 92.945,45.099 92.575 C 45.099 91.861,45.072 91.854,44.566 92.427 M377.991 121.871 C 377.991 122.199,378.120 122.228,378.554 121.995 C 378.864 121.829,379.285 121.758,379.490 121.837 C 379.694 121.915,380.049 121.861,380.277 121.716 C 380.556 121.540,380.249 121.452,379.342 121.449 C 378.358 121.446,377.991 121.560,377.991 121.871 M381.560 121.711 C 381.651 121.858,381.990 121.909,382.314 121.824 C 383.125 121.612,383.052 121.444,382.149 121.444 C 381.734 121.444,381.469 121.565,381.560 121.711 M45.174 130.140 C 45.177 130.789,45.237 131.019,45.308 130.652 C 45.378 130.286,45.376 129.755,45.302 129.473 C 45.228 129.192,45.171 129.492,45.174 130.140 M131.976 155.555 C 132.499 155.621,133.428 155.622,134.039 155.558 C 134.651 155.494,134.223 155.441,133.088 155.439 C 131.953 155.438,131.452 155.490,131.976 155.555 M127.160 156.175 C 127.274 156.359,127.221 156.811,127.042 157.179 C 126.731 157.820,126.737 157.824,127.176 157.276 C 127.723 156.593,127.748 156.332,127.294 156.051 C 127.086 155.922,127.034 155.970,127.160 156.175 M199.684 165.693 C 199.684 166.347,200.015 166.429,200.245 165.831 C 200.333 165.602,200.243 165.351,200.045 165.275 C 199.839 165.196,199.684 165.376,199.684 165.693 M210.099 167.047 C 210.466 167.118,210.996 167.115,211.278 167.041 C 211.560 166.967,211.260 166.910,210.612 166.913 C 209.963 166.916,209.733 166.977,210.099 167.047 M215.999 167.350 C 216.692 167.412,217.753 167.411,218.357 167.348 C 218.961 167.284,218.394 167.233,217.097 167.234 C 215.800 167.236,215.306 167.287,215.999 167.350 M222.894 175.461 L 222.944 176.713 223.060 175.602 C 223.134 174.894,223.293 174.562,223.498 174.689 C 223.691 174.809,223.736 174.752,223.610 174.548 C 223.171 173.839,222.846 174.254,222.894 175.461 M223.826 186.735 C 223.827 187.870,223.880 188.298,223.944 187.687 C 224.008 187.075,224.007 186.147,223.942 185.623 C 223.876 185.100,223.824 185.601,223.826 186.735 M270.124 186.711 C 270.035 186.940,270.011 187.504,270.069 187.963 C 270.156 188.645,270.202 188.568,270.320 187.546 C 270.469 186.257,270.404 185.980,270.124 186.711 M53.843 188.377 C 53.587 188.744,53.353 188.859,53.259 188.665 C 53.170 188.481,53.135 188.504,53.178 188.718 C 53.220 188.924,53.491 189.140,53.781 189.196 C 54.115 189.260,54.231 189.175,54.099 188.962 C 53.985 188.777,54.052 188.432,54.248 188.196 C 54.444 187.960,54.529 187.767,54.437 187.767 C 54.346 187.767,54.078 188.042,53.843 188.377 M222.879 190.641 C 222.859 191.696,222.970 192.483,223.139 192.483 C 223.474 192.483,223.474 191.000,223.139 189.683 C 222.960 188.979,222.907 189.175,222.879 190.641 M223.139 197.200 C 223.139 197.686,223.272 198.084,223.434 198.084 C 223.596 198.084,223.729 197.686,223.729 197.200 C 223.729 196.713,223.596 196.315,223.434 196.315 C 223.272 196.315,223.139 196.713,223.139 197.200 M222.845 202.063 C 222.845 203.658,222.929 204.877,223.032 204.774 C 223.238 204.568,223.186 199.506,222.975 199.296 C 222.903 199.224,222.845 200.469,222.845 202.063 M223.139 212.692 C 223.139 217.247,223.241 219.574,223.434 219.455 C 223.617 219.342,223.729 216.700,223.729 212.510 C 223.729 208.199,223.622 205.748,223.434 205.748 C 223.246 205.748,223.139 208.259,223.139 212.692 M109.774 212.380 C 109.774 215.136,109.818 216.303,109.873 214.974 C 109.927 213.644,109.927 211.389,109.873 209.963 C 109.819 208.536,109.775 209.624,109.774 212.380 M56.595 214.444 C 56.595 215.011,56.728 215.475,56.890 215.475 C 57.052 215.475,57.185 215.011,57.185 214.444 C 57.185 213.876,57.052 213.412,56.890 213.412 C 56.728 213.412,56.595 213.876,56.595 214.444 M222.890 221.518 L 222.918 223.287 223.140 221.960 C 223.262 221.231,223.249 220.435,223.112 220.192 C 222.956 219.916,222.873 220.415,222.890 221.518 M86.957 225.203 C 86.957 225.851,87.009 226.382,87.073 226.382 C 87.137 226.382,87.240 225.851,87.302 225.203 C 87.364 224.554,87.311 224.024,87.185 224.024 C 87.060 224.024,86.957 224.554,86.957 225.203 M77.222 225.852 C 77.144 226.615,77.189 227.130,77.322 226.996 C 77.455 226.863,77.519 226.239,77.464 225.610 L 77.364 224.466 77.222 225.852 M262.933 226.051 C 262.933 226.233,263.073 226.382,263.245 226.382 C 263.417 226.382,263.458 226.548,263.336 226.750 C 263.185 227.001,263.274 226.989,263.613 226.714 C 263.888 226.492,264.112 226.237,264.112 226.149 C 264.112 226.061,264.025 226.076,263.918 226.183 C 263.811 226.289,263.546 226.229,263.329 226.048 C 263.038 225.807,262.933 225.807,262.933 226.051 M219.013 234.783 C 219.013 236.215,219.076 237.323,219.153 237.246 C 219.366 237.033,219.407 232.573,219.197 232.363 C 219.095 232.262,219.013 233.351,219.013 234.783 M56.595 238.320 C 56.595 239.401,56.724 240.236,56.890 240.236 C 57.056 240.236,57.185 239.401,57.185 238.320 C 57.185 237.239,57.056 236.404,56.890 236.404 C 56.724 236.404,56.595 237.239,56.595 238.320 M90.823 237.987 C 90.793 238.986,90.846 239.082,91.245 238.750 C 91.495 238.542,91.577 238.294,91.426 238.198 C 91.275 238.103,91.085 237.760,91.004 237.436 C 90.921 237.101,90.842 237.339,90.823 237.987 M77.691 238.748 C 77.377 238.862,77.251 239.035,77.410 239.134 C 77.714 239.322,78.639 238.886,78.400 238.668 C 78.323 238.598,78.004 238.634,77.691 238.748 M219.139 242.157 C 219.031 242.737,219.024 243.293,219.125 243.394 C 219.225 243.494,219.307 243.249,219.307 242.849 C 219.307 242.450,219.451 241.978,219.628 241.802 C 219.847 241.583,219.851 241.422,219.643 241.293 C 219.464 241.182,219.255 241.541,219.139 242.157 M90.857 242.299 C 90.857 242.867,90.918 243.099,90.992 242.815 C 91.066 242.531,91.066 242.067,90.992 241.783 C 90.918 241.500,90.857 241.732,90.857 242.299 M93.863 249.407 C 93.769 249.559,93.826 249.647,93.988 249.602 C 94.151 249.557,94.472 249.773,94.701 250.080 C 95.100 250.615,95.116 250.610,95.068 249.957 C 95.017 249.269,94.183 248.889,93.863 249.407 M228.809 255.708 C 228.928 255.840,228.795 256.120,228.514 256.331 C 228.052 256.677,228.066 256.698,228.666 256.546 C 229.402 256.361,229.523 256.005,228.961 255.681 C 228.758 255.565,228.690 255.577,228.809 255.708 M241.268 256.743 C 240.974 257.067,240.556 257.332,240.338 257.332 C 239.863 257.332,239.839 257.617,240.263 258.217 C 240.515 258.574,240.554 258.578,240.461 258.236 C 240.399 258.004,240.753 257.444,241.250 256.992 C 241.746 256.540,242.073 256.167,241.976 256.162 C 241.880 256.157,241.561 256.419,241.268 256.743 M114.278 257.861 C 114.218 257.976,114.267 258.401,114.387 258.806 C 114.587 259.478,114.609 259.487,114.635 258.904 C 114.651 258.553,114.824 258.213,115.018 258.148 C 115.242 258.073,115.191 257.961,114.880 257.841 C 114.610 257.738,114.339 257.747,114.278 257.861 " stroke="none" fill="#982424" fill-rule="evenodd"></path><path id="path4" d="M306.264 35.546 C 306.264 35.936,307.110 36.191,307.244 35.841 C 307.357 35.549,307.226 35.425,306.837 35.454 C 306.522 35.478,306.264 35.519,306.264 35.546 M297.347 40.407 C 297.063 40.572,296.833 40.866,296.836 41.061 C 296.839 41.298,296.926 41.280,297.098 41.009 C 297.239 40.785,297.488 40.685,297.652 40.786 C 297.815 40.887,298.025 40.771,298.118 40.529 C 298.313 40.019,298.076 39.982,297.347 40.407 M153.058 49.146 C 153.666 49.210,154.661 49.210,155.269 49.146 C 155.877 49.083,155.380 49.031,154.164 49.031 C 152.948 49.031,152.450 49.083,153.058 49.146 M159.469 49.160 C 159.469 49.286,160.000 49.339,160.648 49.277 C 161.297 49.215,161.828 49.112,161.828 49.048 C 161.828 48.984,161.297 48.931,160.648 48.931 C 160.000 48.931,159.469 49.034,159.469 49.160 M281.961 55.811 C 281.665 56.027,281.496 56.392,281.587 56.621 C 281.708 56.928,281.758 56.902,281.775 56.522 C 281.788 56.238,281.997 56.006,282.240 56.006 C 282.483 56.006,282.682 55.873,282.682 55.711 C 282.682 55.328,282.607 55.338,281.961 55.811 M280.324 56.350 C 280.324 56.701,280.417 56.896,280.529 56.783 C 280.848 56.465,280.893 55.711,280.593 55.711 C 280.445 55.711,280.324 55.999,280.324 56.350 M321.123 56.638 C 320.870 57.047,321.511 57.162,322.010 56.797 C 322.473 56.458,322.463 56.427,321.885 56.427 C 321.538 56.427,321.195 56.522,321.123 56.638 M276.589 67.944 C 276.590 69.079,276.644 69.507,276.707 68.895 C 276.771 68.284,276.770 67.355,276.705 66.832 C 276.640 66.309,276.588 66.809,276.589 67.944 M35.372 76.702 C 35.372 76.952,35.604 77.339,35.888 77.562 C 36.365 77.935,36.370 77.924,35.962 77.405 C 35.718 77.096,35.564 76.787,35.618 76.717 C 35.672 76.648,35.639 76.513,35.544 76.419 C 35.450 76.324,35.372 76.451,35.372 76.702 M44.566 92.427 C 44.354 92.668,44.057 92.789,43.906 92.696 C 43.756 92.603,43.716 92.743,43.817 93.009 C 43.952 93.360,44.062 93.394,44.223 93.134 C 44.345 92.937,44.592 92.867,44.772 92.979 C 44.972 93.102,45.099 92.945,45.099 92.575 C 45.099 91.861,45.072 91.854,44.566 92.427 M377.991 121.871 C 377.991 122.199,378.120 122.228,378.554 121.995 C 378.864 121.829,379.285 121.758,379.490 121.837 C 379.694 121.915,380.049 121.861,380.277 121.716 C 380.556 121.540,380.249 121.452,379.342 121.449 C 378.358 121.446,377.991 121.560,377.991 121.871 M381.560 121.711 C 381.651 121.858,381.990 121.909,382.314 121.824 C 383.125 121.612,383.052 121.444,382.149 121.444 C 381.734 121.444,381.469 121.565,381.560 121.711 M45.174 130.140 C 45.177 130.789,45.237 131.019,45.308 130.652 C 45.378 130.286,45.376 129.755,45.302 129.473 C 45.228 129.192,45.171 129.492,45.174 130.140 M131.976 155.555 C 132.499 155.621,133.428 155.622,134.039 155.558 C 134.651 155.494,134.223 155.441,133.088 155.439 C 131.953 155.438,131.452 155.490,131.976 155.555 M127.160 156.175 C 127.274 156.359,127.221 156.811,127.042 157.179 C 126.731 157.820,126.737 157.824,127.176 157.276 C 127.723 156.593,127.748 156.332,127.294 156.051 C 127.086 155.922,127.034 155.970,127.160 156.175 M199.684 165.693 C 199.684 166.347,200.015 166.429,200.245 165.831 C 200.333 165.602,200.243 165.351,200.045 165.275 C 199.839 165.196,199.684 165.376,199.684 165.693 M210.099 167.047 C 210.466 167.118,210.996 167.115,211.278 167.041 C 211.560 166.967,211.260 166.910,210.612 166.913 C 209.963 166.916,209.733 166.977,210.099 167.047 M215.999 167.350 C 216.692 167.412,217.753 167.411,218.357 167.348 C 218.961 167.284,218.394 167.233,217.097 167.234 C 215.800 167.236,215.306 167.287,215.999 167.350 M222.894 175.461 L 222.944 176.713 223.060 175.602 C 223.134 174.894,223.293 174.562,223.498 174.689 C 223.691 174.809,223.736 174.752,223.610 174.548 C 223.171 173.839,222.846 174.254,222.894 175.461 M223.826 186.735 C 223.827 187.870,223.880 188.298,223.944 187.687 C 224.008 187.075,224.007 186.147,223.942 185.623 C 223.876 185.100,223.824 185.601,223.826 186.735 M270.124 186.711 C 270.035 186.940,270.011 187.504,270.069 187.963 C 270.156 188.645,270.202 188.568,270.320 187.546 C 270.469 186.257,270.404 185.980,270.124 186.711 M53.843 188.377 C 53.587 188.744,53.353 188.859,53.259 188.665 C 53.170 188.481,53.135 188.504,53.178 188.718 C 53.220 188.924,53.491 189.140,53.781 189.196 C 54.115 189.260,54.231 189.175,54.099 188.962 C 53.985 188.777,54.052 188.432,54.248 188.196 C 54.444 187.960,54.529 187.767,54.437 187.767 C 54.346 187.767,54.078 188.042,53.843 188.377 M222.879 190.641 C 222.859 191.696,222.970 192.483,223.139 192.483 C 223.474 192.483,223.474 191.000,223.139 189.683 C 222.960 188.979,222.907 189.175,222.879 190.641 M223.139 197.200 C 223.139 197.686,223.272 198.084,223.434 198.084 C 223.596 198.084,223.729 197.686,223.729 197.200 C 223.729 196.713,223.596 196.315,223.434 196.315 C 223.272 196.315,223.139 196.713,223.139 197.200 M222.845 202.063 C 222.845 203.658,222.929 204.877,223.032 204.774 C 223.238 204.568,223.186 199.506,222.975 199.296 C 222.903 199.224,222.845 200.469,222.845 202.063 M223.139 212.692 C 223.139 217.247,223.241 219.574,223.434 219.455 C 223.617 219.342,223.729 216.700,223.729 212.510 C 223.729 208.199,223.622 205.748,223.434 205.748 C 223.246 205.748,223.139 208.259,223.139 212.692 M109.774 212.380 C 109.774 215.136,109.818 216.303,109.873 214.974 C 109.927 213.644,109.927 211.389,109.873 209.963 C 109.819 208.536,109.775 209.624,109.774 212.380 M56.595 214.444 C 56.595 215.011,56.728 215.475,56.890 215.475 C 57.052 215.475,57.185 215.011,57.185 214.444 C 57.185 213.876,57.052 213.412,56.890 213.412 C 56.728 213.412,56.595 213.876,56.595 214.444 M222.890 221.518 L 222.918 223.287 223.140 221.960 C 223.262 221.231,223.249 220.435,223.112 220.192 C 222.956 219.916,222.873 220.415,222.890 221.518 M86.957 225.203 C 86.957 225.851,87.009 226.382,87.073 226.382 C 87.137 226.382,87.240 225.851,87.302 225.203 C 87.364 224.554,87.311 224.024,87.185 224.024 C 87.060 224.024,86.957 224.554,86.957 225.203 M77.222 225.852 C 77.144 226.615,77.189 227.130,77.322 226.996 C 77.455 226.863,77.519 226.239,77.464 225.610 L 77.364 224.466 77.222 225.852 M262.933 226.051 C 262.933 226.233,263.073 226.382,263.245 226.382 C 263.417 226.382,263.458 226.548,263.336 226.750 C 263.185 227.001,263.274 226.989,263.613 226.714 C 263.888 226.492,264.112 226.237,264.112 226.149 C 264.112 226.061,264.025 226.076,263.918 226.183 C 263.811 226.289,263.546 226.229,263.329 226.048 C 263.038 225.807,262.933 225.807,262.933 226.051 M219.013 234.783 C 219.013 236.215,219.076 237.323,219.153 237.246 C 219.366 237.033,219.407 232.573,219.197 232.363 C 219.095 232.262,219.013 233.351,219.013 234.783 M56.595 238.320 C 56.595 239.401,56.724 240.236,56.890 240.236 C 57.056 240.236,57.185 239.401,57.185 238.320 C 57.185 237.239,57.056 236.404,56.890 236.404 C 56.724 236.404,56.595 237.239,56.595 238.320 M90.823 237.987 C 90.793 238.986,90.846 239.082,91.245 238.750 C 91.495 238.542,91.577 238.294,91.426 238.198 C 91.275 238.103,91.085 237.760,91.004 237.436 C 90.921 237.101,90.842 237.339,90.823 237.987 M77.691 238.748 C 77.377 238.862,77.251 239.035,77.410 239.134 C 77.714 239.322,78.639 238.886,78.400 238.668 C 78.323 238.598,78.004 238.634,77.691 238.748 M219.139 242.157 C 219.031 242.737,219.024 243.293,219.125 243.394 C 219.225 243.494,219.307 243.249,219.307 242.849 C 219.307 242.450,219.451 241.978,219.628 241.802 C 219.847 241.583,219.851 241.422,219.643 241.293 C 219.464 241.182,219.255 241.541,219.139 242.157 M90.857 242.299 C 90.857 242.867,90.918 243.099,90.992 242.815 C 91.066 242.531,91.066 242.067,90.992 241.783 C 90.918 241.500,90.857 241.732,90.857 242.299 M93.863 249.407 C 93.769 249.559,93.826 249.647,93.988 249.602 C 94.151 249.557,94.472 249.773,94.701 250.080 C 95.100 250.615,95.116 250.610,95.068 249.957 C 95.017 249.269,94.183 248.889,93.863 249.407 M228.809 255.708 C 228.928 255.840,228.795 256.120,228.514 256.331 C 228.052 256.677,228.066 256.698,228.666 256.546 C 229.402 256.361,229.523 256.005,228.961 255.681 C 228.758 255.565,228.690 255.577,228.809 255.708 M241.268 256.743 C 240.974 257.067,240.556 257.332,240.338 257.332 C 239.863 257.332,239.839 257.617,240.263 258.217 C 240.515 258.574,240.554 258.578,240.461 258.236 C 240.399 258.004,240.753 257.444,241.250 256.992 C 241.746 256.540,242.073 256.167,241.976 256.162 C 241.880 256.157,241.561 256.419,241.268 256.743 M114.278 257.861 C 114.218 257.976,114.267 258.401,114.387 258.806 C 114.587 259.478,114.609 259.487,114.635 258.904 C 114.651 258.553,114.824 258.213,115.018 258.148 C 115.242 258.073,115.191 257.961,114.880 257.841 C 114.610 257.738,114.339 257.747,114.278 257.861 " stroke="none" fill="#982424" fill-rule="evenodd"></path></g></svg>